<svg width="243" height="300" viewBox="0 0 243 300" fill="none" xmlns="http://www.w3.org/2000/svg">
<g filter="url(#filter0_d_705_7906)">
<path d="M148.586 6.00051C152.728 6.04848 156.047 9.445 155.999 13.5869L155.745 35.5274C155.697 39.6692 152.3 42.988 148.159 42.94C144.017 42.8921 140.698 39.4955 140.746 35.3537L141 13.4132C141.048 9.2713 144.444 5.95255 148.586 6.00051Z" fill="#FFC800"/>
<path d="M94.5751 32.1357C91.6675 29.1856 86.9189 29.1511 83.9687 32.0586C81.0186 34.9662 80.9841 39.7148 83.8917 42.665L99.2938 58.2926C102.201 61.2428 106.95 61.2773 109.9 58.3697C112.85 55.4621 112.885 50.7135 109.977 47.7634L94.5751 32.1357Z" fill="#FFC800"/>
<path d="M192.409 96.5239C192.409 121.311 172.315 141.405 147.528 141.405C122.741 141.405 102.647 121.311 102.647 96.5239C102.647 71.7366 122.741 51.6425 147.528 51.6425C172.315 51.6425 192.409 71.7366 192.409 96.5239Z" fill="#FFC800"/>
<path d="M238.058 96.524C238.058 100.666 234.7 104.024 230.558 104.024H208.616C204.474 104.024 201.116 100.666 201.116 96.524C201.116 92.3819 204.474 89.024 208.616 89.024H230.558C234.7 89.024 238.058 92.3819 238.058 96.524Z" fill="#FFC800"/>
<path d="M200.936 160.539C203.865 163.468 208.614 163.468 211.543 160.539C214.472 157.61 214.472 152.862 211.543 149.933L196.027 134.417C193.098 131.489 188.35 131.489 185.421 134.417C182.492 137.346 182.492 142.095 185.421 145.024L200.936 160.539Z" fill="#FFC800"/>
<path d="M147.175 187.055C143.032 187.039 139.688 183.668 139.704 179.526L139.788 157.584C139.804 153.442 143.175 150.097 147.317 150.113C151.459 150.129 154.804 153.5 154.788 157.642L154.703 179.584C154.687 183.726 151.317 187.07 147.175 187.055Z" fill="#FFC800"/>
<path d="M83.3129 149.693C80.3733 152.611 80.3561 157.36 83.2743 160.299C86.1926 163.239 90.9413 163.256 93.8809 160.338L109.452 144.879C112.392 141.961 112.409 137.212 109.491 134.272C106.573 131.333 101.824 131.315 98.8845 134.234L83.3129 149.693Z" fill="#FFC800"/>
<path d="M57.0002 95.8194C57.0322 91.6774 60.4159 88.3455 64.5579 88.3775L86.4992 88.5469C90.6412 88.5789 93.9731 91.9626 93.9411 96.1046C93.9091 100.247 90.5254 103.578 86.3834 103.546L64.4421 103.377C60.3001 103.345 56.9682 99.9614 57.0002 95.8194Z" fill="#FFC800"/>
<path d="M212.104 43.8003C215.065 40.9034 215.117 36.155 212.22 33.1943C209.323 30.2336 204.574 30.1818 201.614 33.0787L185.93 48.424C182.97 51.3208 182.918 56.0693 185.815 59.0299C188.712 61.9906 193.46 62.0424 196.421 59.1455L212.104 43.8003Z" fill="#FFC800"/>
<path d="M95.6298 233.083C94.3483 241.754 86.3497 247.754 77.7644 246.485C69.1792 245.216 63.2583 237.159 64.5398 228.488C66.537 214.975 83.6174 206.884 84.5294 200.714C83.652 206.65 97.627 219.57 95.6298 233.083Z" fill="#0BC2FF"/>
<path d="M142.63 233.083C141.348 241.754 133.35 247.754 124.764 246.485C116.179 245.216 110.258 237.159 111.54 228.488C113.537 214.975 130.617 206.884 131.529 200.714C130.652 206.65 144.627 219.57 142.63 233.083Z" fill="#0BC2FF"/>
<path fill-rule="evenodd" clip-rule="evenodd" d="M159.836 187.645L48.0441 187.915C47.0948 187.979 46.1321 188.017 45.1693 188.017C22.4421 188.017 4 170.02 4 147.844C4 125.656 24.7474 107.915 47.4746 107.915C51.3393 80.9965 74.419 61 101.621 61C129.366 61 152.73 81.7785 155.944 109.325C178.522 109.325 200.625 125.707 200.625 147.742C200.625 169.738 182.373 187.594 159.836 187.645V187.645Z" fill="#C2D3E7"/>
<path fill-rule="evenodd" clip-rule="evenodd" d="M166.406 187.669L61.6548 187.921C60.7653 187.981 59.8632 188.017 58.9611 188.017C37.6653 188.017 20.3848 171.154 20.3848 150.375C20.3848 129.584 39.8254 112.96 61.1211 112.96C64.7424 87.737 86.3685 69 111.857 69C137.854 69 159.747 88.4698 162.759 114.281C183.915 114.281 204.626 129.631 204.626 150.278C204.626 170.889 187.523 187.621 166.406 187.669V187.669Z" fill="#D6E2F0"/>
</g>
<defs>
<filter id="filter0_d_705_7906" x="-3" y="0" width="248" height="308" filterUnits="userSpaceOnUse" color-interpolation-filters="sRGB">
<feFlood flood-opacity="0" result="BackgroundImageFix"/>
<feColorMatrix in="SourceAlpha" type="matrix" values="0 0 0 0 0 0 0 0 0 0 0 0 0 0 0 0 0 0 127 0" result="hardAlpha"/>
<feOffset dy="4"/>
<feGaussianBlur stdDeviation="2"/>
<feComposite in2="hardAlpha" operator="out"/>
<feColorMatrix type="matrix" values="0 0 0 0 0 0 0 0 0 0 0 0 0 0 0 0 0 0 0.25 0"/>
<feBlend mode="normal" in2="BackgroundImageFix" result="effect1_dropShadow_705_7906"/>
<feBlend mode="normal" in="SourceGraphic" in2="effect1_dropShadow_705_7906" result="shape"/>
</filter>
</defs>
</svg>
