<svg width="40" viewBox="0 0 240 300" fill="none" xmlns="http://www.w3.org/2000/svg"><path d="M114.63 230.083C113.348 238.754 105.35 244.754 96.7644 243.485C88.1792 242.217 82.2583 234.159 83.5398 225.488C85.537 211.975 102.617 203.885 103.529 197.714C102.652 203.65 116.627 216.571 114.63 230.083Z" class="svg-color-6-fill"/><path d="M161.63 230.083C160.348 238.754 152.35 244.754 143.764 243.485C135.179 242.217 129.258 234.159 130.54 225.488C132.537 211.975 149.617 203.885 150.529 197.714C149.652 203.65 163.627 216.571 161.63 230.083Z" class="svg-color-6-fill"/><path fill-rule="evenodd" clip-rule="evenodd" d="M158.836 187.645L47.0441 187.915C46.0948 187.979 45.1321 188.017 44.1693 188.017C21.4421 188.017 3 170.02 3 147.844C3 125.656 23.7474 107.915 46.4746 107.915C50.3393 80.9965 73.419 61 100.621 61C128.366 61 151.73 81.7785 154.944 109.325C177.522 109.325 199.625 125.707 199.625 147.742C199.625 169.738 181.373 187.594 158.836 187.645V187.645Z" class="svg-color-8-fill"/><path fill-rule="evenodd" clip-rule="evenodd" d="M165.406 187.669L60.6548 187.921C59.7653 187.981 58.8632 188.017 57.9611 188.017C36.6653 188.017 19.3848 171.154 19.3848 150.375C19.3848 129.584 38.8254 112.96 60.1211 112.96C63.7424 87.737 85.3685 69 110.857 69C136.854 69 158.747 88.4698 161.759 114.281C182.915 114.281 203.626 129.631 203.626 150.278C203.626 170.889 186.523 187.621 165.406 187.669V187.669Z" class="svg-color-9-fill"/><path fill-rule="evenodd" clip-rule="evenodd" d="M87.48 96L50.77 161.27H76.27L37 246.18L111.96 154.13L81.37 145.97L87.48 96Z" fill="url(#paint0_linear_705_8205)"/><defs><linearGradient id="paint0_linear_705_8205" x1="74.48" y1="96" x2="74.48" y2="246.18" gradientUnits="userSpaceOnUse"><stop class="svg-color-10-stop"/><stop offset="1" class="svg-color-11-stop"/></linearGradient></defs></svg>
