<svg width="40" viewBox="0 0 240 300" fill="none" xmlns="http://www.w3.org/2000/svg"><path fill-rule="evenodd" clip-rule="evenodd" d="M165.836 187.645L54.0441 187.915C53.0948 187.979 52.1321 188.017 51.1693 188.017C28.4421 188.017 10 170.02 10 147.844C10 125.656 30.7474 107.915 53.4746 107.915C57.3393 80.9965 80.419 61 107.621 61C135.366 61 158.73 81.7785 161.944 109.325C184.522 109.325 206.625 125.707 206.625 147.742C206.625 169.738 188.373 187.594 165.836 187.645V187.645Z" class="svg-color-8-fill"/><path fill-rule="evenodd" clip-rule="evenodd" d="M172.406 187.669L67.6548 187.921C66.7653 187.981 65.8632 188.017 64.9611 188.017C43.6653 188.017 26.3848 171.154 26.3848 150.375C26.3848 129.584 45.8254 112.96 67.1211 112.96C70.7424 87.737 92.3685 69 117.857 69C143.854 69 165.747 88.4698 168.759 114.281C189.915 114.281 210.626 129.631 210.626 150.278C210.626 170.889 193.523 187.621 172.406 187.669V187.669Z" class="svg-color-9-fill"/><path fill-rule="evenodd" clip-rule="evenodd" d="M201.745 231.739L123.735 231.928C123.072 231.973 122.401 232 121.729 232C105.869 232 93 219.39 93 203.851C93 188.304 107.478 175.873 123.337 175.873C126.034 157.011 142.14 143 161.122 143C180.482 143 196.787 157.559 199.029 176.861C214.785 176.861 230.209 188.34 230.209 203.779C230.209 219.192 217.472 231.704 201.745 231.739V231.739Z" class="svg-color-8-fill"/><path fill-rule="evenodd" clip-rule="evenodd" d="M206.329 231.756L133.233 231.933C132.612 231.975 131.982 232 131.353 232C116.492 232 104.434 220.184 104.434 205.624C104.434 191.056 118 179.408 132.86 179.408C135.387 161.734 150.478 148.606 168.265 148.606C186.406 148.606 201.683 162.248 203.785 180.334C218.548 180.334 233 191.09 233 205.557C233 219.999 221.066 231.722 206.329 231.756V231.756Z" class="svg-color-9-fill"/></svg>
