<svg width="20" viewBox="0 0 240 300" fill="none" xmlns="http://www.w3.org/2000/svg"><path fill-rule="evenodd" clip-rule="evenodd" d="M178.836 186.645L67.0441 186.915C66.0948 186.979 65.1321 187.017 64.1693 187.017C41.4421 187.017 23 169.02 23 146.844C23 124.656 43.7474 106.915 66.4746 106.915C70.3393 79.9965 93.419 60 120.621 60C148.366 60 171.73 80.7785 174.944 108.325C197.522 108.325 219.625 124.707 219.625 146.742C219.625 168.738 201.373 186.594 178.836 186.645V186.645Z" fill="#C2D3E7"/><path fill-rule="evenodd" clip-rule="evenodd" d="M185.406 186.669L80.6548 186.921C79.7653 186.981 78.8632 187.017 77.9611 187.017C56.6653 187.017 39.3848 170.154 39.3848 149.375C39.3848 128.584 58.8254 111.96 80.1211 111.96C83.7424 86.737 105.369 68 130.857 68C156.854 68 178.747 87.4698 181.759 113.281C202.915 113.281 223.626 128.631 223.626 149.278C223.626 169.889 206.523 186.621 185.406 186.669V186.669Z" fill="#D6E2F0"/><path d="M139.63 227.083C138.348 235.754 130.35 241.754 121.764 240.485C113.179 239.216 107.258 231.159 108.54 222.488C110.537 208.975 127.617 200.884 128.529 194.714C127.652 200.65 141.627 213.57 139.63 227.083Z" fill="#0BC2FF"/><path d="M158.63 272.083C157.348 280.754 149.35 286.754 140.764 285.485C132.179 284.216 126.258 276.159 127.54 267.488C129.537 253.975 146.617 245.884 147.529 239.714C146.652 245.65 160.627 258.57 158.63 272.083Z" fill="#0BC2FF"/><path d="M92.6298 227.083C91.3483 235.754 83.3497 241.754 74.7644 240.485C66.1792 239.216 60.2583 231.159 61.5398 222.488C63.537 208.975 80.6174 200.884 81.5294 194.714C80.652 200.65 94.627 213.57 92.6298 227.083Z" fill="#0BC2FF"/><path d="M111.63 272.083C110.348 280.754 102.35 286.754 93.7644 285.485C85.1792 284.216 79.2583 276.159 80.5398 267.488C82.537 253.975 99.6174 245.884 100.529 239.714C99.652 245.65 113.627 258.57 111.63 272.083Z" fill="#0BC2FF"/><path d="M186.63 227.083C185.348 235.754 177.35 241.754 168.764 240.485C160.179 239.216 154.258 231.159 155.54 222.488C157.537 208.975 174.617 200.884 175.529 194.714C174.652 200.65 188.627 213.57 186.63 227.083Z" fill="#0BC2FF"/></svg>