<svg width="40" viewBox="0 0 240 300" fill="none" xmlns="http://www.w3.org/2000/svg"><path d="M111.63 233.083C110.348 241.754 102.35 247.754 93.7644 246.485C85.1792 245.216 79.2583 237.159 80.5398 228.488C82.537 214.975 99.6174 206.884 100.529 200.714C99.652 206.65 113.627 219.57 111.63 233.083Z" class="svg-color-6-fill"/><path d="M158.63 233.083C157.348 241.754 149.35 247.754 140.764 246.485C132.179 245.216 126.258 237.159 127.54 228.488C129.537 214.975 146.617 206.884 147.529 200.714C146.652 206.65 160.627 219.57 158.63 233.083Z" class="svg-color-6-fill"/><path fill-rule="evenodd" clip-rule="evenodd" d="M175.836 187.645L64.0441 187.915C63.0948 187.979 62.1321 188.017 61.1693 188.017C38.4421 188.017 20 170.02 20 147.844C20 125.656 40.7474 107.915 63.4746 107.915C67.3393 80.9965 90.419 61 117.621 61C145.366 61 168.73 81.7785 171.944 109.325C194.522 109.325 216.625 125.707 216.625 147.742C216.625 169.738 198.373 187.594 175.836 187.645V187.645Z" class="svg-color-8-fill"/><path fill-rule="evenodd" clip-rule="evenodd" d="M182.406 187.669L77.6548 187.921C76.7653 187.981 75.8632 188.017 74.9611 188.017C53.6653 188.017 36.3848 171.154 36.3848 150.375C36.3848 129.584 55.8254 112.96 77.1211 112.96C80.7424 87.737 102.369 69 127.857 69C153.854 69 175.747 88.4698 178.759 114.281C199.915 114.281 220.626 129.631 220.626 150.278C220.626 170.889 203.523 187.621 182.406 187.669V187.669Z" class="svg-color-9-fill"/></svg>
