<svg width="40" viewBox="0 0 240 300" fill="none" xmlns="http://www.w3.org/2000/svg"><path fill-rule="evenodd" clip-rule="evenodd" d="M175.836 186.645L64.0441 186.915C63.0948 186.979 62.1321 187.017 61.1693 187.017C38.4421 187.017 20 169.02 20 146.844C20 124.656 40.7474 106.915 63.4746 106.915C67.3393 79.9965 90.419 60 117.621 60C145.366 60 168.73 80.7785 171.944 108.325C194.522 108.325 216.625 124.707 216.625 146.742C216.625 168.738 198.373 186.594 175.836 186.645V186.645Z" class="svg-color-8-fill"/><path fill-rule="evenodd" clip-rule="evenodd" d="M182.406 186.669L77.6548 186.921C76.7653 186.981 75.8632 187.017 74.9611 187.017C53.6653 187.017 36.3848 170.154 36.3848 149.375C36.3848 128.584 55.8254 111.96 77.1211 111.96C80.7424 86.737 102.369 68 127.857 68C153.854 68 175.747 87.4698 178.759 113.281C199.915 113.281 220.626 128.631 220.626 149.278C220.626 169.889 203.523 186.621 182.406 186.669V186.669Z" class="svg-color-9-fill"/><path d="M183.63 224.084C182.348 232.754 174.35 238.755 165.764 237.486C157.179 236.217 151.258 228.159 152.54 219.489C154.537 205.976 171.617 197.885 172.529 191.715C171.652 197.651 185.627 210.571 183.63 224.084Z" class="svg-color-6-fill"/><path d="M94.6298 224.084C93.3483 232.754 85.3497 238.755 76.7644 237.486C68.1792 236.217 62.2583 228.159 63.5398 219.489C65.537 205.976 82.6174 197.885 83.5294 191.715C82.652 197.651 96.627 210.571 94.6298 224.084Z" class="svg-color-6-fill"/><path d="M159.63 277.084C158.348 285.754 150.35 291.755 141.764 290.486C133.179 289.217 127.258 281.159 128.54 272.489C130.537 258.976 147.617 250.885 148.529 244.715C147.652 250.651 161.627 263.571 159.63 277.084Z" class="svg-color-6-fill"/><circle cx="126" cy="215" r="13" class="svg-color-12-fill" class="svg-color-6-stroke" stroke-width="4"/><circle cx="101" cy="272" r="13" class="svg-color-12-fill" class="svg-color-6-stroke" stroke-width="4"/><path fill-rule="evenodd" clip-rule="evenodd" d="M133.14 100L98.8588 160.846H122.672L86 240L156 154.19L127.434 146.583L133.14 100Z" fill="url(#paint0_linear_705_8239)"/><defs><linearGradient id="paint0_linear_705_8239" x1="121" y1="100" x2="121" y2="240" gradientUnits="userSpaceOnUse"><stop class="svg-color-10-stop"/><stop offset="1" class="svg-color-11-stop"/></linearGradient></defs></svg>
