<svg width="40" viewBox="0 0 240 300" fill="none" xmlns="http://www.w3.org/2000/svg">
	<path
		d="M147.586 6.00051C151.728 6.04848 155.047 9.445 154.999 13.5869L154.745 35.5274C154.697 39.6692 151.3 42.988 147.159 42.94C143.017 42.8921 139.698 39.4955 139.746 35.3537L140 13.4132C140.048 9.2713 143.444 5.95255 147.586 6.00051Z"
		class="svg-color-3-fill" />
	<path
		d="M93.5751 32.1357C90.6675 29.1856 85.9189 29.1511 82.9687 32.0586C80.0186 34.9662 79.9841 39.7148 82.8917 42.665L98.2938 58.2926C101.201 61.2428 105.95 61.2773 108.9 58.3697C111.85 55.4621 111.885 50.7135 108.977 47.7634L93.5751 32.1357Z"
		class="svg-color-3-fill" />
	<path
		d="M191.409 96.5239C191.409 121.311 171.315 141.405 146.528 141.405C121.741 141.405 101.647 121.311 101.647 96.5239C101.647 71.7366 121.741 51.6425 146.528 51.6425C171.315 51.6425 191.409 71.7366 191.409 96.5239Z"
		class="svg-color-3-fill" />
	<path
		d="M237.058 96.524C237.058 100.666 233.7 104.024 229.558 104.024H207.616C203.474 104.024 200.116 100.666 200.116 96.524C200.116 92.3819 203.474 89.024 207.616 89.024H229.558C233.7 89.024 237.058 92.3819 237.058 96.524Z"
		class="svg-color-3-fill" />
	<path
		d="M199.936 160.539C202.865 163.468 207.614 163.468 210.543 160.539C213.472 157.61 213.472 152.862 210.543 149.933L195.027 134.417C192.098 131.489 187.35 131.489 184.421 134.417C181.492 137.346 181.492 142.095 184.421 145.024L199.936 160.539Z"
		class="svg-color-3-fill" />
	<path
		d="M146.175 187.055C142.032 187.039 138.688 183.668 138.704 179.526L138.788 157.584C138.804 153.442 142.175 150.097 146.317 150.113C150.459 150.129 153.804 153.5 153.788 157.642L153.703 179.584C153.687 183.726 150.317 187.07 146.175 187.055Z"
		class="svg-color-3-fill" />
	<path
		d="M82.3129 149.693C79.3733 152.611 79.3561 157.36 82.2743 160.299C85.1926 163.239 89.9413 163.256 92.8809 160.338L108.452 144.879C111.392 141.961 111.409 137.212 108.491 134.272C105.573 131.333 100.824 131.315 97.8845 134.234L82.3129 149.693Z"
		class="svg-color-3-fill" />
	<path
		d="M56.0002 95.8194C56.0322 91.6774 59.4159 88.3455 63.5579 88.3775L85.4992 88.5469C89.6412 88.5789 92.9731 91.9626 92.9411 96.1046C92.9091 100.247 89.5254 103.578 85.3834 103.546L63.4421 103.377C59.3001 103.345 55.9682 99.9614 56.0002 95.8194Z"
		class="svg-color-3-fill" />
	<path
		d="M211.104 43.8003C214.065 40.9034 214.117 36.155 211.22 33.1943C208.323 30.2336 203.574 30.1818 200.614 33.0787L184.93 48.424C181.97 51.3208 181.918 56.0693 184.815 59.0299C187.712 61.9906 192.46 62.0424 195.421 59.1455L211.104 43.8003Z"
		class="svg-color-3-fill" />
	<path
		d="M114.63 230.084C113.348 238.754 105.35 244.755 96.7644 243.486C88.1792 242.217 82.2583 234.159 83.5398 225.489C85.537 211.976 102.617 203.885 103.529 197.715C102.652 203.651 116.627 216.571 114.63 230.084Z"
		class="svg-color-6-fill" />
	<path
		d="M161.63 230.084C160.348 238.754 152.35 244.755 143.764 243.486C135.179 242.217 129.258 234.159 130.54 225.489C132.537 211.976 149.617 203.885 150.529 197.715C149.652 203.651 163.627 216.571 161.63 230.084Z"
		class="svg-color-6-fill" />
	<path fill-rule="evenodd" clip-rule="evenodd"
		d="M138.745 193.739L60.7347 193.928C60.0723 193.973 59.4005 194 58.7287 194C42.8692 194 30 181.39 30 165.851C30 150.304 44.4779 137.873 60.3373 137.873C63.0342 119.011 79.1396 105 98.1217 105C117.482 105 133.787 119.559 136.029 138.861C151.785 138.861 167.209 150.34 167.209 165.779C167.209 181.192 154.472 193.704 138.745 193.739V193.739Z"
		class="svg-color-8-fill" />
	<path fill-rule="evenodd" clip-rule="evenodd"
		d="M143.329 193.756L70.2325 193.933C69.6119 193.975 68.9823 194 68.3528 194C53.4923 194 41.4336 182.184 41.4336 167.624C41.4336 153.056 54.9996 141.408 69.8602 141.408C72.3872 123.734 87.4782 110.605 105.265 110.605C123.406 110.605 138.683 124.248 140.785 142.334C155.548 142.334 170 153.09 170 167.557C170 181.999 158.066 193.722 143.329 193.756V193.756Z"
		class="svg-color-9-fill" />
	<path fill-rule="evenodd" clip-rule="evenodd"
		d="M75.793 138L42.4915 197.542H65.6238L30 275L98 191.028L70.2503 183.585L75.793 138Z"
		fill="url(#paint0_linear_705_8219)" />
	<defs>
		<linearGradient id="paint0_linear_705_8219" x1="64" y1="138" x2="64" y2="275" gradientUnits="userSpaceOnUse">
			<stop class="svg-color-10-stop" />
			<stop offset="1" class="svg-color-11-stop" />
		</linearGradient>
	</defs>
</svg>
