<svg width="40" viewBox="0 0 240 300" fill="none" xmlns="http://www.w3.org/2000/svg"><path d="M120.586 6.00051C124.728 6.04848 128.047 9.445 127.999 13.5869L127.745 35.5274C127.697 39.6692 124.3 42.988 120.159 42.94C116.017 42.8921 112.698 39.4955 112.746 35.3537L113 13.4132C113.048 9.2713 116.444 5.95255 120.586 6.00051Z" class="svg-color-3-fill"/><path d="M66.5751 32.1357C63.6675 29.1856 58.9189 29.1511 55.9687 32.0586C53.0186 34.9662 52.9841 39.7148 55.8917 42.665L71.2938 58.2926C74.2014 61.2428 78.95 61.2773 81.9002 58.3697C84.8503 55.4621 84.8848 50.7135 81.9772 47.7634L66.5751 32.1357Z" class="svg-color-3-fill"/><path d="M164.409 96.5239C164.409 121.311 144.315 141.405 119.528 141.405C94.7406 141.405 74.6465 121.311 74.6465 96.5239C74.6465 71.7366 94.7406 51.6425 119.528 51.6425C144.315 51.6425 164.409 71.7366 164.409 96.5239Z" class="svg-color-3-fill"/><path d="M210.058 96.524C210.058 100.666 206.7 104.024 202.558 104.024H180.616C176.474 104.024 173.116 100.666 173.116 96.524C173.116 92.3819 176.474 89.024 180.616 89.024H202.558C206.7 89.024 210.058 92.3819 210.058 96.524Z" class="svg-color-3-fill"/><path d="M172.936 160.539C175.865 163.468 180.614 163.468 183.543 160.539C186.472 157.61 186.472 152.862 183.543 149.933L168.027 134.417C165.098 131.489 160.35 131.489 157.421 134.417C154.492 137.346 154.492 142.095 157.421 145.024L172.936 160.539Z" class="svg-color-3-fill"/><path d="M119.175 187.055C115.032 187.039 111.688 183.668 111.704 179.526L111.788 157.584C111.804 153.442 115.175 150.097 119.317 150.113C123.459 150.129 126.804 153.5 126.788 157.642L126.703 179.584C126.687 183.726 123.317 187.07 119.175 187.055Z" class="svg-color-3-fill"/><path d="M55.3129 149.693C52.3733 152.611 52.3561 157.36 55.2743 160.299C58.1926 163.239 62.9413 163.256 65.8809 160.338L81.4525 144.879C84.392 141.961 84.4093 137.212 81.491 134.272C78.5727 131.333 73.824 131.315 70.8845 134.234L55.3129 149.693Z" class="svg-color-3-fill"/><path d="M29.0002 95.8194C29.0322 91.6774 32.4159 88.3455 36.5579 88.3775L58.4992 88.5469C62.6412 88.5789 65.9731 91.9626 65.9411 96.1046C65.9091 100.247 62.5254 103.578 58.3834 103.546L36.4421 103.377C32.3001 103.345 28.9682 99.9614 29.0002 95.8194Z" class="svg-color-3-fill"/><path d="M184.104 43.8003C187.065 40.9034 187.117 36.155 184.22 33.1943C181.323 30.2336 176.574 30.1818 173.614 33.0787L157.93 48.424C154.97 51.3208 154.918 56.0693 157.815 59.0299C160.712 61.9906 165.46 62.0424 168.421 59.1455L184.104 43.8003Z" class="svg-color-3-fill"/><path fill-rule="evenodd" clip-rule="evenodd" d="M201.978 190.76L129.539 190.934C128.924 190.975 128.3 191 127.677 191C112.95 191 101 179.382 101 165.065C101 150.741 114.444 139.288 129.17 139.288C131.675 121.909 146.63 109 164.256 109C182.234 109 197.373 122.414 199.456 140.198C214.086 140.198 228.408 150.774 228.408 164.999C228.408 179.199 216.581 190.727 201.978 190.76V190.76Z" class="svg-color-8-fill"/><path fill-rule="evenodd" clip-rule="evenodd" d="M206.234 190.775L138.358 190.938C137.782 190.977 137.197 191 136.613 191C122.814 191 111.616 180.113 111.616 166.699C111.616 153.276 124.213 142.544 138.012 142.544C140.359 126.261 154.372 114.165 170.888 114.165C187.733 114.165 201.92 126.734 203.871 143.397C217.579 143.397 231 153.307 231 166.637C231 179.943 219.918 190.744 206.234 190.775V190.775Z" class="svg-color-9-fill"/></svg>
