<svg width="40" viewBox="0 0 240 300" fill="none" xmlns="http://www.w3.org/2000/svg">
	<g clip-path="url(#clip0_719_9539)">
		<path
			d="M148.586 2.00051C152.728 2.04848 156.047 5.445 155.999 9.58686L155.745 31.5274C155.697 35.6692 152.3 38.988 148.159 38.94C144.017 38.8921 140.698 35.4955 140.746 31.3537L141 9.41316C141.048 5.2713 144.444 1.95255 148.586 2.00051Z"
			class="svg-color-3-fill" />
		<path
			d="M94.5751 28.1357C91.6675 25.1856 86.9189 25.1511 83.9687 28.0586C81.0186 30.9662 80.9841 35.7148 83.8917 38.665L99.2938 54.2926C102.201 57.2428 106.95 57.2773 109.9 54.3697C112.85 51.4621 112.885 46.7135 109.977 43.7634L94.5751 28.1357Z"
			class="svg-color-3-fill" />
		<path
			d="M192.409 92.5239C192.409 117.311 172.315 137.405 147.528 137.405C122.741 137.405 102.647 117.311 102.647 92.5239C102.647 67.7366 122.741 47.6425 147.528 47.6425C172.315 47.6425 192.409 67.7366 192.409 92.5239Z"
			class="svg-color-3-fill" />
		<path
			d="M238.058 92.524C238.058 96.6662 234.7 100.024 230.558 100.024H208.616C204.474 100.024 201.116 96.6662 201.116 92.524C201.116 88.3819 204.474 85.024 208.616 85.024H230.558C234.7 85.024 238.058 88.3819 238.058 92.524Z"
			class="svg-color-3-fill" />
		<path
			d="M200.936 156.539C203.865 159.468 208.614 159.468 211.543 156.539C214.472 153.61 214.472 148.862 211.543 145.933L196.027 130.417C193.098 127.489 188.35 127.489 185.421 130.417C182.492 133.346 182.492 138.095 185.421 141.024L200.936 156.539Z"
			class="svg-color-3-fill" />
		<path
			d="M147.175 183.055C143.032 183.039 139.688 179.668 139.704 175.526L139.788 153.584C139.804 149.442 143.175 146.097 147.317 146.113C151.459 146.129 154.804 149.5 154.788 153.642L154.703 175.584C154.687 179.726 151.317 183.07 147.175 183.055Z"
			class="svg-color-3-fill" />
		<path
			d="M83.3129 145.693C80.3733 148.611 80.3561 153.36 83.2743 156.299C86.1926 159.239 90.9413 159.256 93.8809 156.338L109.452 140.879C112.392 137.961 112.409 133.212 109.491 130.272C106.573 127.333 101.824 127.315 98.8845 130.234L83.3129 145.693Z"
			class="svg-color-3-fill" />
		<path
			d="M57.0002 91.8194C57.0322 87.6774 60.4159 84.3455 64.5579 84.3775L86.4992 84.5469C90.6412 84.5789 93.9731 87.9626 93.9411 92.1046C93.9091 96.2466 90.5254 99.5784 86.3834 99.5464L64.4421 99.377C60.3001 99.3451 56.9682 95.9614 57.0002 91.8194Z"
			class="svg-color-3-fill" />
		<path
			d="M212.104 39.8003C215.065 36.9034 215.117 32.155 212.22 29.1943C209.323 26.2336 204.574 26.1818 201.614 29.0787L185.93 44.424C182.97 47.3208 182.918 52.0693 185.815 55.0299C188.712 57.9906 193.46 58.0424 196.421 55.1455L212.104 39.8003Z"
			class="svg-color-3-fill" />
		<path fill-rule="evenodd" clip-rule="evenodd"
			d="M157.836 186.645L46.0441 186.915C45.0948 186.979 44.1321 187.017 43.1693 187.017C20.4421 187.017 2 169.02 2 146.844C2 124.656 22.7474 106.915 45.4746 106.915C49.3393 79.9965 72.419 60 99.6211 60C127.366 60 150.73 80.7785 153.944 108.325C176.522 108.325 198.625 124.707 198.625 146.742C198.625 168.738 180.373 186.594 157.836 186.645V186.645Z"
			class="svg-color-8-fill" />
		<path fill-rule="evenodd" clip-rule="evenodd"
			d="M164.406 186.669L59.6548 186.921C58.7653 186.981 57.8632 187.017 56.9611 187.017C35.6653 187.017 18.3848 170.154 18.3848 149.375C18.3848 128.584 37.8254 111.96 59.1211 111.96C62.7424 86.737 84.3685 68 109.857 68C135.854 68 157.747 87.4698 160.759 113.281C181.915 113.281 202.626 128.631 202.626 149.278C202.626 169.889 185.523 186.621 164.406 186.669V186.669Z"
			class="svg-color-9-fill" />
		<path
			d="M80.6298 233.083C79.3483 241.754 71.3497 247.754 62.7644 246.485C54.1792 245.216 48.2583 237.159 49.5398 228.488C51.537 214.975 68.6174 206.884 69.5294 200.714C68.652 206.65 82.627 219.57 80.6298 233.083Z"
			class="svg-color-6-fill" />
		<path
			d="M127.63 227.083C126.348 235.754 118.35 241.754 109.764 240.485C101.179 239.216 95.2583 231.159 96.5398 222.488C98.537 208.975 115.617 200.884 116.529 194.714C115.652 200.65 129.627 213.57 127.63 227.083Z"
			class="svg-color-6-fill" />
	</g>
	<defs>
		<clipPath id="clip0_719_9539">
			<rect width="240" height="300" class="svg-color-12-fill" />
		</clipPath>
	</defs>
</svg>
