<svg width="20" viewBox="0 0 240 300" fill="none" xmlns="http://www.w3.org/2000/svg"><path d="M147.586 6.00051C151.728 6.04848 155.047 9.445 154.999 13.5869L154.745 35.5274C154.697 39.6692 151.3 42.988 147.159 42.94C143.017 42.8921 139.698 39.4955 139.746 35.3537L140 13.4132C140.048 9.2713 143.444 5.95255 147.586 6.00051Z" fill="#FFC800"/><path d="M93.5751 32.1357C90.6675 29.1856 85.9189 29.1511 82.9687 32.0586C80.0186 34.9662 79.9841 39.7148 82.8917 42.665L98.2938 58.2926C101.201 61.2428 105.95 61.2773 108.9 58.3697C111.85 55.4621 111.885 50.7135 108.977 47.7634L93.5751 32.1357Z" fill="#FFC800"/><path d="M191.409 96.5239C191.409 121.311 171.315 141.405 146.528 141.405C121.741 141.405 101.647 121.311 101.647 96.5239C101.647 71.7366 121.741 51.6425 146.528 51.6425C171.315 51.6425 191.409 71.7366 191.409 96.5239Z" fill="#FFC800"/><path d="M237.058 96.524C237.058 100.666 233.7 104.024 229.558 104.024H207.616C203.474 104.024 200.116 100.666 200.116 96.524C200.116 92.3819 203.474 89.024 207.616 89.024H229.558C233.7 89.024 237.058 92.3819 237.058 96.524Z" fill="#FFC800"/><path d="M199.936 160.539C202.865 163.468 207.614 163.468 210.543 160.539C213.472 157.61 213.472 152.862 210.543 149.933L195.027 134.417C192.098 131.489 187.35 131.489 184.421 134.417C181.492 137.346 181.492 142.095 184.421 145.024L199.936 160.539Z" fill="#FFC800"/><path d="M146.175 187.055C142.032 187.039 138.688 183.668 138.704 179.526L138.788 157.584C138.804 153.442 142.175 150.097 146.317 150.113C150.459 150.129 153.804 153.5 153.788 157.642L153.703 179.584C153.687 183.726 150.317 187.07 146.175 187.055Z" fill="#FFC800"/><path d="M82.3129 149.693C79.3733 152.611 79.3561 157.36 82.2743 160.299C85.1926 163.239 89.9413 163.256 92.8809 160.338L108.452 144.879C111.392 141.961 111.409 137.212 108.491 134.272C105.573 131.333 100.824 131.315 97.8845 134.234L82.3129 149.693Z" fill="#FFC800"/><path d="M56.0002 95.8194C56.0322 91.6774 59.4159 88.3455 63.5579 88.3775L85.4992 88.5469C89.6412 88.5789 92.9731 91.9626 92.9411 96.1046C92.9091 100.247 89.5254 103.578 85.3834 103.546L63.4421 103.377C59.3001 103.345 55.9682 99.9614 56.0002 95.8194Z" fill="#FFC800"/><path d="M211.104 43.8003C214.065 40.9034 214.117 36.155 211.22 33.1943C208.323 30.2336 203.574 30.1818 200.614 33.0787L184.93 48.424C181.97 51.3208 181.918 56.0693 184.815 59.0299C187.712 61.9906 192.46 62.0424 195.421 59.1455L211.104 43.8003Z" fill="#FFC800"/><path d="M114.63 230.083C113.348 238.754 105.35 244.754 96.7644 243.485C88.1792 242.217 82.2583 234.159 83.5398 225.488C85.537 211.975 102.617 203.885 103.529 197.714C102.652 203.65 116.627 216.571 114.63 230.083Z" fill="#0BC2FF"/><path d="M161.63 230.083C160.348 238.754 152.35 244.754 143.764 243.485C135.179 242.217 129.258 234.159 130.54 225.488C132.537 211.975 149.617 203.885 150.529 197.714C149.652 203.65 163.627 216.571 161.63 230.083Z" fill="#0BC2FF"/><path fill-rule="evenodd" clip-rule="evenodd" d="M158.836 187.645L47.0441 187.915C46.0948 187.979 45.1321 188.017 44.1693 188.017C21.4421 188.017 3 170.02 3 147.844C3 125.656 23.7474 107.915 46.4746 107.915C50.3393 80.9965 73.419 61 100.621 61C128.366 61 151.73 81.7785 154.944 109.325C177.522 109.325 199.625 125.707 199.625 147.742C199.625 169.738 181.373 187.594 158.836 187.645V187.645Z" fill="#C2D3E7"/><path fill-rule="evenodd" clip-rule="evenodd" d="M165.406 187.669L60.6548 187.921C59.7653 187.981 58.8632 188.017 57.9611 188.017C36.6653 188.017 19.3848 171.154 19.3848 150.375C19.3848 129.584 38.8254 112.96 60.1211 112.96C63.7424 87.737 85.3685 69 110.857 69C136.854 69 158.747 88.4698 161.759 114.281C182.915 114.281 203.626 129.631 203.626 150.278C203.626 170.889 186.523 187.621 165.406 187.669V187.669Z" fill="#D6E2F0"/><path fill-rule="evenodd" clip-rule="evenodd" d="M94.48 87L57.77 152.27H83.27L44 237.18L118.96 145.13L88.37 136.97L94.48 87Z" fill="url(#paint0_linear_705_8196)"/><defs><linearGradient id="paint0_linear_705_8196" x1="81.48" y1="87" x2="81.48" y2="237.18" gradientUnits="userSpaceOnUse"><stop stop-color="#FFCACA"/><stop offset="1" stop-color="#FD1049"/></linearGradient></defs></svg>