<svg width="20" viewBox="0 0 240 300" fill="none" xmlns="http://www.w3.org/2000/svg"><path d="M122.586 37.0005C126.728 37.0485 130.047 40.445 129.999 44.5869L129.745 66.5274C129.697 70.6692 126.3 73.988 122.159 73.94C118.017 73.8921 114.698 70.4955 114.746 66.3537L115 44.4132C115.048 40.2713 118.444 36.9525 122.586 37.0005Z" fill="#FFC800"/><path d="M68.5751 63.1357C65.6675 60.1856 60.9189 60.1511 57.9687 63.0586C55.0186 65.9662 54.9841 70.7148 57.8917 73.665L73.2938 89.2926C76.2014 92.2428 80.95 92.2773 83.9002 89.3697C86.8503 86.4621 86.8848 81.7135 83.9772 78.7634L68.5751 63.1357Z" fill="#FFC800"/><path d="M166.409 127.524C166.409 152.311 146.315 172.405 121.528 172.405C96.7406 172.405 76.6465 152.311 76.6465 127.524C76.6465 102.737 96.7406 82.6425 121.528 82.6425C146.315 82.6425 166.409 102.737 166.409 127.524Z" fill="#FFC800"/><path d="M212.058 127.524C212.058 131.666 208.7 135.024 204.558 135.024H182.616C178.474 135.024 175.116 131.666 175.116 127.524C175.116 123.382 178.474 120.024 182.616 120.024H204.558C208.7 120.024 212.058 123.382 212.058 127.524Z" fill="#FFC800"/><path d="M174.936 191.539C177.865 194.468 182.614 194.468 185.543 191.539C188.472 188.61 188.472 183.862 185.543 180.933L170.027 165.417C167.098 162.489 162.35 162.489 159.421 165.417C156.492 168.346 156.492 173.095 159.421 176.024L174.936 191.539Z" fill="#FFC800"/><path d="M121.175 218.055C117.032 218.039 113.688 214.668 113.704 210.526L113.788 188.584C113.804 184.442 117.175 181.097 121.317 181.113C125.459 181.129 128.804 184.5 128.788 188.642L128.703 210.584C128.687 214.726 125.317 218.07 121.175 218.055Z" fill="#FFC800"/><path d="M57.3129 180.693C54.3733 183.611 54.3561 188.36 57.2743 191.299C60.1926 194.239 64.9413 194.256 67.8809 191.338L83.4525 175.879C86.392 172.961 86.4093 168.212 83.491 165.272C80.5727 162.333 75.824 162.315 72.8845 165.234L57.3129 180.693Z" fill="#FFC800"/><path d="M31.0002 126.819C31.0322 122.677 34.4159 119.346 38.5579 119.377L60.4992 119.547C64.6412 119.579 67.9731 122.963 67.9411 127.105C67.9091 131.247 64.5254 134.578 60.3834 134.546L38.4421 134.377C34.3001 134.345 30.9682 130.961 31.0002 126.819Z" fill="#FFC800"/><path d="M186.104 74.8003C189.065 71.9034 189.117 67.155 186.22 64.1943C183.323 61.2336 178.574 61.1818 175.614 64.0787L159.93 79.424C156.97 82.3208 156.918 87.0693 159.815 90.0299C162.712 92.9906 167.46 93.0424 170.421 90.1455L186.104 74.8003Z" fill="#FFC800"/><g opacity="0.7"><path fill-rule="evenodd" clip-rule="evenodd" d="M177.836 186.645L66.0441 186.915C65.0948 186.979 64.1321 187.017 63.1693 187.017C40.4421 187.017 22 169.02 22 146.844C22 124.656 42.7474 106.915 65.4746 106.915C69.3393 79.9965 92.419 60 119.621 60C147.366 60 170.73 80.7785 173.944 108.325C196.522 108.325 218.625 124.707 218.625 146.742C218.625 168.738 200.373 186.594 177.836 186.645V186.645Z" fill="#C2D3E7"/><path fill-rule="evenodd" clip-rule="evenodd" d="M184.406 186.669L79.6548 186.921C78.7653 186.981 77.8632 187.017 76.9611 187.017C55.6653 187.017 38.3848 170.154 38.3848 149.375C38.3848 128.584 57.8254 111.96 79.1211 111.96C82.7424 86.737 104.369 68 129.857 68C155.854 68 177.747 87.4698 180.759 113.281C201.915 113.281 222.626 128.631 222.626 149.278C222.626 169.889 205.523 186.621 184.406 186.669V186.669Z" fill="#D6E2F0"/></g></svg>