<svg width="40" viewBox="0 0 240 300" fill="none" xmlns="http://www.w3.org/2000/svg">
  <path d="M67 83.104H111" class="svg-color-7-stroke" stroke-width="8" />
  <path d="M100 102.604L78 63.9999" class="svg-color-7-stroke" stroke-width="8" />
  <path d="M100 64.396L78 103" class="svg-color-7-stroke" stroke-width="8" />
  <path d="M149.327 78.2446H201.672" class="svg-color-7-stroke" stroke-width="9.51724" />
  <path d="M188.586 101.443L162.414 55.5174" class="svg-color-7-stroke" stroke-width="9.51724" />
  <path d="M188.586 55.9883L162.414 101.914" class="svg-color-7-stroke" stroke-width="9.51724" />
  <path d="M168 178.104H212" class="svg-color-7-stroke" stroke-width="8" />
  <path d="M201 197.604L179 159" class="svg-color-7-stroke" stroke-width="8" />
  <path d="M201 159.396L179 198.001" class="svg-color-7-stroke" stroke-width="8" />
  <path d="M100 218.104H144" class="svg-color-7-stroke" stroke-width="8" />
  <path d="M133 237.604L111 199" class="svg-color-7-stroke" stroke-width="8" />
  <path d="M133 199.396L111 238" class="svg-color-7-stroke" stroke-width="8" />
  <path d="M28.5088 176.076H75.7092" class="svg-color-7-stroke" stroke-width="8.58189" />
  <path d="M63.9092 196.994L40.309 155.582" class="svg-color-7-stroke" stroke-width="8.58189" />
  <path d="M63.9092 156.007L40.309 197.419" class="svg-color-7-stroke" stroke-width="8.58189" />
  <path
    d="M177 126.435C177.041 158.285 152.457 184.042 122.06 184C97.7427 183.966 78.0318 163.314 78 137.834C77.9744 117.477 93.7259 100.973 113.154 101C128.714 101.022 141.337 114.247 141.357 130.551C141.374 143.602 131.312 154.146 118.855 154.128C108.906 154.114 100.818 145.64 100.805 135.216"
    class="svg-color-13-stroke" stroke-width="6" stroke-linecap="round" />
</svg>
