<svg width="20" viewBox="0 0 16 22" fill="none" xmlns="http://www.w3.org/2000/svg">
  <path  fill-rule="evenodd" class="svg-color-2-fill"
    d="M11.9621 19.7689C10.8305 20.5417 9.43818 21 7.92015 21C4.05211 21 1 18.0242 1 14.4539C1 11.5932 2.75413 8.96755 4.73542 6.53513C5.09123 6.0983 5.46286 5.65778 5.82815 5.22478C6.42939 4.51208 7.01348 3.81973 7.48165 3.19761C7.64029 2.9868 7.79267 2.7753 7.93485 2.56392C8.06905 2.75981 8.21191 2.95615 8.36021 3.15216C8.8116 3.74877 9.37529 4.41908 9.95755 5.11146C10.2227 5.42674 10.4917 5.74659 10.7556 6.06615C10.4551 6.73316 9.79761 7.50099 9.05605 8.367C7.48685 10.1995 5.54119 12.4717 5.8047 15.1585C6.08806 18.0476 8.49886 20.1758 11.1894 19.9119C11.4546 19.8859 11.7126 19.8376 11.9621 19.7689ZM5.09509 4.54254C6.01178 3.45665 6.83983 2.47573 7.35896 1.60712C7.71032 1.01921 7.92015 0.482752 7.92015 0C7.92015 0.472829 8.13766 1.00752 8.50058 1.60014C9.0106 2.43298 9.80782 3.38022 10.6922 4.43097C12.9758 7.14435 15.8403 10.5479 15.8403 14.4539C15.8403 18.6215 12.2943 22 7.92015 22C3.54597 22 0 18.6215 0 14.4539C0 10.5781 2.82041 7.23711 5.09509 4.54254Z" />
</svg>
