<svg width="15" viewBox="0 0 15 17" fill="none" xmlns="http://www.w3.org/2000/svg">
  <mask id="path-1-inside-1_467_59997" class ="svg-color-12-fill">
    <path fill-rule="evenodd" clip-rule="evenodd"
      d="M5.30832 13.7393C8.8707 12.0218 10.3663 7.74162 8.64879 4.17925C7.86195 2.5472 6.53724 1.34895 4.99009 0.694708C8.54039 0.0134675 12.2426 1.76412 13.8868 5.1745C15.8469 9.24011 14.14 14.1249 10.0744 16.085C6.7465 17.6895 2.86972 16.837 0.497389 14.245C2.05541 14.627 3.7505 14.4903 5.30832 13.7393Z" />
  </mask>
  <path
    d="M4.99006 0.694728L4.80162 -0.287356L1.56756 0.333201L4.60059 1.61576L4.99006 0.694728ZM0.497366 14.245L0.735473 13.2738L-2.46542 12.4891L-0.240304 14.9202L0.497366 14.245ZM7.74799 4.61355C9.22563 7.67844 7.93891 11.3609 4.87402 12.8385L5.74258 14.6401C9.80244 12.6827 11.5069 7.80485 9.54955 3.74499L7.74799 4.61355ZM4.60059 1.61576C5.93241 2.17894 7.07073 3.20879 7.74799 4.61355L9.54955 3.74499C8.65313 1.88565 7.14202 0.518986 5.37954 -0.226309L4.60059 1.61576ZM5.17851 1.67681C8.29471 1.07887 11.5436 2.61699 12.986 5.6088L14.7875 4.74024C12.9415 0.911289 8.78604 -1.05189 4.80162 -0.287356L5.17851 1.67681ZM12.986 5.6088C14.7062 9.17693 13.2082 13.464 9.6401 15.1843L10.5087 16.9858C15.0718 14.7859 16.9875 9.30334 14.7875 4.74024L12.986 5.6088ZM9.6401 15.1843C6.72075 16.5917 3.3176 15.8452 1.23504 13.5699L-0.240304 14.9202C2.4218 17.8287 6.77221 18.7872 10.5087 16.9858L9.6401 15.1843ZM4.87402 12.8385C3.53294 13.4851 2.07631 13.6025 0.735473 13.2738L0.25926 15.2163C2.03447 15.6515 3.96801 15.4956 5.74258 14.6401L4.87402 12.8385Z"
    class="svg-color-3-fill" mask="url(#path-1-inside-1_467_59997)" />
</svg>
