<svg width="20" viewBox="0 0 20 20" fill="none" xmlns="http://www.w3.org/2000/svg">
  <path fill-rule="evenodd"
    d="M20 0.899706C20 0.402812 19.5972 0 19.1003 0H0.899706C0.402812 0 0 0.402812 0 0.899706V19.1003C0 19.5972 0.402812 20 0.899706 20H19.1003C19.5972 20 20 19.5972 20 19.1003V0.899706ZM18.1818 2.94644C18.1818 2.44955 17.779 2.04674 17.2821 2.04674H2.95244C2.45555 2.04674 2.05273 2.44955 2.05273 2.94644V13.6616C2.05273 14.1585 2.45555 14.5614 2.95244 14.5614H17.2821C17.779 14.5614 18.1818 14.1585 18.1818 13.6616V2.94644Z"
    class="svg-color-1-fill" />
  <ellipse cx="5.93638" cy="6.08233" rx="1.34897" ry="1.34503" class="svg-color-1-fill" />
  <path
    d="M16.3761 12.9533H4.23535L4.70456 10.1171L6.72802 11.4914L8.63418 8.39194L11.3615 10.1171L13.8541 6.31592L16.3761 12.9533Z"
    class="svg-color-1-fill" />
</svg>
