<svg width="20" viewBox="0 0 20 20" fill="none" xmlns="http://www.w3.org/2000/svg">
  <path fill-rule="evenodd" clip-rule="evenodd"
    d="M10.4995 1.16724C10.4995 0.891094 10.2757 0.667236 9.99954 0.667236C9.7234 0.667236 9.49954 0.891094 9.49954 1.16724V3.50153C9.49954 3.77767 9.7234 4.00153 9.99954 4.00153C10.2757 4.00153 10.4995 3.77767 10.4995 3.50153V1.16724ZM9.99984 6.22531C12.0846 6.22531 13.7745 7.9153 13.7745 9.99999C13.7745 12.0847 12.0846 13.7747 9.99984 13.7747C7.91512 13.7747 6.22513 12.0847 6.22513 9.99999C6.22513 7.9153 7.91512 6.22531 9.99984 6.22531ZM9.99984 5.22531C12.6368 5.22531 14.7745 7.36301 14.7745 9.99999C14.7745 12.637 12.6368 14.7747 9.99984 14.7747C7.36284 14.7747 5.22513 12.637 5.22513 9.99999C5.22513 7.36301 7.36284 5.22531 9.99984 5.22531ZM16.2926 3L14.2416 5.05013C14.0462 5.24535 14.0462 5.56193 14.2414 5.75724C14.4366 5.95255 14.7532 5.95262 14.9485 5.7574L17 3.70683V5.5C17 5.77614 17.2239 6 17.5 6C17.7762 6 18 5.77614 18 5.5V2.5C18 2.22385 17.7762 2 17.5 2H14.5C14.2239 2 14 2.22385 14 2.5C14 2.77614 14.2239 3 14.5 3H16.2926ZM19.3329 10.0367C19.3318 10.3129 19.1071 10.5359 18.8309 10.5348L16.4967 10.5258C16.2205 10.5247 15.9975 10.3 15.9986 10.0239C15.9997 9.74772 16.2244 9.52473 16.5005 9.52579L18.8348 9.5348C19.1109 9.53587 19.3339 9.76059 19.3329 10.0367ZM15.8673 16.6217C16.0619 16.8176 16.3784 16.8188 16.5744 16.6242C16.7704 16.4297 16.7715 16.1131 16.577 15.9171L14.9324 14.2605C14.7378 14.0646 14.4213 14.0634 14.2253 14.258C14.0293 14.4525 14.0282 14.7691 14.2227 14.9651L15.8673 16.6217ZM9.92713 19.3328C9.651 19.3306 9.42888 19.1051 9.43102 18.8289L9.44912 16.4947C9.45126 16.2186 9.67684 15.9964 9.95298 15.9986C10.2291 16.0007 10.4512 16.2263 10.4491 16.5024L10.431 18.8366C10.4289 19.1128 10.2033 19.3349 9.92713 19.3328ZM3.35875 15.8454C3.16207 16.0392 3.15977 16.3558 3.35361 16.5525C3.54745 16.7492 3.86402 16.7515 4.0607 16.5576L5.72325 14.9191C5.91992 14.7252 5.92222 14.4087 5.72839 14.212C5.53455 14.0153 5.21797 14.013 5.0213 14.2068L3.35875 15.8454ZM0.66715 9.89066C0.670399 9.61454 0.896876 9.39325 1.173 9.3964L3.50715 9.423C3.78328 9.42615 4.00449 9.65254 4.00124 9.92866C3.99799 10.2048 3.77151 10.4261 3.49539 10.4229L1.16123 10.3963C0.885109 10.3932 0.6639 10.1668 0.66715 9.89066ZM4.17761 3.33843C3.98449 3.14105 3.66792 3.1376 3.47054 3.33072C3.27317 3.52384 3.26972 3.8404 3.46284 4.03778L5.09535 5.70627C5.28847 5.90365 5.60504 5.9071 5.80241 5.71398C5.99979 5.52085 6.00324 5.20429 5.81012 5.00691L4.17761 3.33843Z"
    class="svg-color-3-fill" />
</svg>
