<svg width="20" height="20" viewBox="0 0 20 20" fill="none" xmlns="http://www.w3.org/2000/svg">
  <path fill-rule="evenodd" clip-rule="evenodd"
    d="M10.1094 0.667028C10.3855 0.670277 10.6068 0.896754 10.6036 1.17288L10.577 3.50704C10.5739 3.78316 10.3475 4.00437 10.0714 4.00112C9.79523 3.99788 9.57394 3.7714 9.57708 3.49527L9.60369 1.16111C9.60683 0.884988 9.83323 0.663778 10.1094 0.667028ZM4.15462 3.35863C3.96079 3.16196 3.64421 3.15966 3.44754 3.35349C3.25086 3.54733 3.24856 3.86391 3.4424 4.06059L5.08095 5.72314C5.27479 5.91982 5.59136 5.92212 5.78804 5.72828C5.98471 5.53444 5.98702 5.21786 5.79318 5.02119L4.15462 3.35863ZM13.7747 9.99975C13.7747 12.0845 12.0847 13.7745 10 13.7745C7.91533 13.7745 6.22534 12.0845 6.22534 9.99975C6.22534 7.91502 7.91533 6.22503 10 6.22503C12.0847 6.22503 13.7747 7.91502 13.7747 9.99975ZM14.7747 9.99975C14.7747 12.6368 12.637 14.7745 10 14.7745C7.36304 14.7745 5.22534 12.6368 5.22534 9.99975C5.22534 7.36274 7.36304 5.22503 10 5.22503C12.637 5.22503 14.7747 7.36274 14.7747 9.99975ZM18.8328 10.4994C19.1089 10.4994 19.3328 10.2756 19.3328 9.99945C19.3328 9.7233 19.1089 9.49945 18.8328 9.49945H16.4985C16.2223 9.49945 15.9985 9.7233 15.9985 9.99945C15.9985 10.2756 16.2223 10.4994 16.4985 10.4994H18.8328ZM17 16.2926L14.9499 14.2415C14.7547 14.0462 14.4381 14.0461 14.2428 14.2413C14.0475 14.4365 14.0474 14.7531 14.2426 14.9484L16.2932 16.9999H14.5C14.2239 16.9999 14 17.2238 14 17.4999C14 17.7761 14.2239 17.9999 14.5 17.9999H17.5C17.7762 17.9999 18 17.7761 18 17.4999V14.4999C18 14.2238 17.7762 13.9999 17.5 13.9999C17.2239 13.9999 17 14.2238 17 14.4999V16.2926ZM9.96329 19.3328C9.68715 19.3317 9.46415 19.107 9.46522 18.8309L9.47423 16.4966C9.4753 16.2204 9.70002 15.9974 9.97616 15.9985C10.2523 15.9996 10.4753 16.2243 10.4742 16.5004L10.4652 18.8347C10.4641 19.1109 10.2394 19.3339 9.96329 19.3328ZM3.37837 15.8672C3.1824 16.0618 3.18125 16.3784 3.3758 16.5743C3.57035 16.7703 3.88693 16.7715 4.0829 16.5769L5.73948 14.9323C5.93545 14.7378 5.9366 14.4212 5.74204 14.2252C5.54749 14.0292 5.23091 14.0281 5.03494 14.2226L3.37837 15.8672ZM0.667251 9.92704C0.669375 9.6509 0.894947 9.42879 1.17108 9.43093L3.5053 9.44902C3.78144 9.45116 4.00357 9.67675 4.00145 9.95288C3.99932 10.229 3.77375 10.4511 3.49761 10.449L1.16339 10.4309C0.887258 10.4288 0.665128 10.2032 0.667251 9.92704ZM16.6616 4.1775C16.859 3.98438 16.8624 3.66781 16.6693 3.47043C16.4762 3.27305 16.1596 3.2696 15.9622 3.46272L14.2937 5.09524C14.0964 5.28836 14.0929 5.60493 14.286 5.80231C14.4792 5.99969 14.7957 6.00314 14.9931 5.81002L16.6616 4.1775Z"
    class="svg-color-3-fill" />
</svg>
