<svg width="20" viewBox="0 0 240 300" fill="none" xmlns="http://www.w3.org/2000/svg"><path fill-rule="evenodd" clip-rule="evenodd" d="M175.836 187.645L64.0441 187.915C63.0948 187.979 62.1321 188.017 61.1693 188.017C38.4421 188.017 20 170.02 20 147.844C20 125.656 40.7474 107.915 63.4746 107.915C67.3393 80.9965 90.419 61 117.621 61C145.366 61 168.73 81.7785 171.944 109.325C194.522 109.325 216.625 125.707 216.625 147.742C216.625 169.738 198.373 187.594 175.836 187.645V187.645Z" fill="#C2D3E7"/><path fill-rule="evenodd" clip-rule="evenodd" d="M182.406 187.669L77.6548 187.921C76.7653 187.981 75.8632 188.017 74.9611 188.017C53.6653 188.017 36.3848 171.154 36.3848 150.375C36.3848 129.584 55.8254 112.96 77.1211 112.96C80.7424 87.737 102.369 69 127.857 69C153.854 69 175.747 88.4698 178.759 114.281C199.915 114.281 220.626 129.631 220.626 150.278C220.626 170.889 203.523 187.621 182.406 187.669V187.669Z" fill="#D6E2F0"/><path d="M98 215.104H142" stroke="#9EBBDD" stroke-width="8"/><path d="M131 234.604L109 196" stroke="#9EBBDD" stroke-width="8"/><path d="M131 196.396L109 235" stroke="#9EBBDD" stroke-width="8"/><path d="M127 263.104H171" stroke="#9EBBDD" stroke-width="8"/><path d="M160 282.604L138 244" stroke="#9EBBDD" stroke-width="8"/><path d="M160 244.396L138 283" stroke="#9EBBDD" stroke-width="8"/><path d="M187.63 224.083C186.348 232.754 178.35 238.754 169.764 237.485C161.179 236.216 155.258 228.159 156.54 219.488C158.537 205.975 175.617 197.884 176.529 191.714C175.652 197.65 189.627 210.57 187.63 224.083Z" fill="#0BC2FF"/><path d="M82.6298 224.083C81.3483 232.754 73.3497 238.754 64.7644 237.485C56.1792 236.216 50.2583 228.159 51.5398 219.488C53.537 205.975 70.6174 197.884 71.5294 191.714C70.652 197.65 84.627 210.57 82.6298 224.083Z" fill="#0BC2FF"/><path d="M102.63 273.083C101.348 281.754 93.3497 287.754 84.7644 286.485C76.1792 285.216 70.2583 277.159 71.5398 268.488C73.537 254.975 90.6174 246.884 91.5294 240.714C90.652 246.65 104.627 259.57 102.63 273.083Z" fill="#0BC2FF"/></svg>