<svg width="20" viewBox="0 0 240 300" fill="none" xmlns="http://www.w3.org/2000/svg"><path d="M133 223.104H177" stroke="#9EBBDD" stroke-width="8"/><path d="M166 242.604L144 204" stroke="#9EBBDD" stroke-width="8"/><path d="M166 204.396L144 243" stroke="#9EBBDD" stroke-width="8"/><path d="M78 215.104H122" stroke="#9EBBDD" stroke-width="8"/><path d="M111 234.604L89 196" stroke="#9EBBDD" stroke-width="8"/><path d="M111 196.396L89 235" stroke="#9EBBDD" stroke-width="8"/><path fill-rule="evenodd" clip-rule="evenodd" d="M175.836 187.645L64.0441 187.915C63.0948 187.979 62.1321 188.017 61.1693 188.017C38.4421 188.017 20 170.02 20 147.844C20 125.656 40.7474 107.915 63.4746 107.915C67.3393 80.9965 90.419 61 117.621 61C145.366 61 168.73 81.7785 171.944 109.325C194.522 109.325 216.625 125.707 216.625 147.742C216.625 169.738 198.373 187.594 175.836 187.645V187.645Z" fill="#C2D3E7"/><path fill-rule="evenodd" clip-rule="evenodd" d="M182.406 187.669L77.6548 187.921C76.7653 187.981 75.8632 188.017 74.9611 188.017C53.6653 188.017 36.3848 171.154 36.3848 150.375C36.3848 129.584 55.8254 112.96 77.1211 112.96C80.7424 87.737 102.369 69 127.857 69C153.854 69 175.747 88.4698 178.759 114.281C199.915 114.281 220.626 129.631 220.626 150.278C220.626 170.889 203.523 187.621 182.406 187.669V187.669Z" fill="#D6E2F0"/></svg>