<svg width="20" viewBox="0 0 240 300" fill="none" xmlns="http://www.w3.org/2000/svg"><path d="M88 220.104H132" stroke="#9EBBDD" stroke-width="8"/><path d="M121 239.604L99 201" stroke="#9EBBDD" stroke-width="8"/><path d="M121 201.396L99 240" stroke="#9EBBDD" stroke-width="8"/><path d="M177.63 230.083C176.348 238.754 168.35 244.754 159.764 243.485C151.179 242.217 145.258 234.159 146.54 225.488C148.537 211.975 165.617 203.885 166.529 197.714C165.652 203.65 179.627 216.571 177.63 230.083Z" fill="#0BC2FF"/><path fill-rule="evenodd" clip-rule="evenodd" d="M174.836 187.645L63.0441 187.915C62.0948 187.979 61.1321 188.017 60.1693 188.017C37.4421 188.017 19 170.02 19 147.844C19 125.656 39.7474 107.915 62.4746 107.915C66.3393 80.9965 89.419 61 116.621 61C144.366 61 167.73 81.7785 170.944 109.325C193.522 109.325 215.625 125.707 215.625 147.742C215.625 169.738 197.373 187.594 174.836 187.645V187.645Z" fill="#C2D3E7"/><path fill-rule="evenodd" clip-rule="evenodd" d="M181.406 187.669L76.6548 187.921C75.7653 187.981 74.8632 188.017 73.9611 188.017C52.6653 188.017 35.3848 171.154 35.3848 150.375C35.3848 129.584 54.8254 112.96 76.1211 112.96C79.7424 87.737 101.369 69 126.857 69C152.854 69 174.747 88.4698 177.759 114.281C198.915 114.281 219.626 129.631 219.626 150.278C219.626 170.889 202.523 187.621 181.406 187.669V187.669Z" fill="#D6E2F0"/></svg>