<svg width="20" viewBox="0 0 240 300" fill="none" xmlns="http://www.w3.org/2000/svg"><path fill-rule="evenodd" clip-rule="evenodd" d="M164.161 129.808C135.283 103.054 133.56 57.955 160.314 29.0766C160.651 28.7135 160.99 28.3546 161.332 28C146.917 29.3964 132.939 35.8804 122.322 47.3405C99.3284 72.1596 100.809 110.919 125.628 133.912C143.827 150.773 169.522 154.474 191 145.463C181.304 142.388 172.117 137.178 164.161 129.808Z" fill="#FFC800"/><path d="M91.6298 231.084C90.3483 239.754 82.3497 245.755 73.7644 244.486C65.1792 243.217 59.2583 235.159 60.5398 226.489C62.537 212.976 79.6174 204.885 80.5294 198.715C79.652 204.651 93.627 217.571 91.6298 231.084Z" fill="#0BC2FF"/><path fill-rule="evenodd" clip-rule="evenodd" d="M138.745 193.739L60.7347 193.928C60.0723 193.973 59.4005 194 58.7287 194C42.8692 194 30 181.39 30 165.851C30 150.304 44.4779 137.873 60.3373 137.873C63.0342 119.011 79.1396 105 98.1217 105C117.482 105 133.787 119.559 136.029 138.861C151.785 138.861 167.209 150.34 167.209 165.779C167.209 181.192 154.472 193.704 138.745 193.739V193.739Z" fill="#C2D3E7"/><path fill-rule="evenodd" clip-rule="evenodd" d="M143.329 193.756L70.2325 193.933C69.6119 193.975 68.9823 194 68.3528 194C53.4923 194 41.4336 182.184 41.4336 167.624C41.4336 153.056 54.9996 141.408 69.8602 141.408C72.3872 123.734 87.4782 110.605 105.265 110.605C123.406 110.605 138.683 124.248 140.785 142.334C155.548 142.334 170 153.09 170 167.557C170 181.999 158.066 193.722 143.329 193.756V193.756Z" fill="#D6E2F0"/></svg>