<svg width="40" viewBox="0 0 240 300" fill="none" xmlns="http://www.w3.org/2000/svg"><path fill-rule="evenodd" clip-rule="evenodd" d="M170.161 131.808C141.283 105.054 139.56 59.955 166.314 31.0766C166.651 30.7135 166.99 30.3546 167.332 30C152.917 31.3964 138.939 37.8804 128.322 49.3405C105.328 74.1596 106.809 112.919 131.628 135.912C149.827 152.773 175.522 156.474 197 147.463C187.304 144.388 178.117 139.178 170.161 131.808Z" class="svg-color-3-fill"/><path d="M114.63 230.084C113.348 238.754 105.35 244.755 96.7644 243.486C88.1792 242.217 82.2583 234.159 83.5398 225.489C85.537 211.976 102.617 203.885 103.529 197.715C102.652 203.651 116.627 216.571 114.63 230.084Z" class="svg-color-6-fill"/><path d="M161.63 230.084C160.348 238.754 152.35 244.755 143.764 243.486C135.179 242.217 129.258 234.159 130.54 225.489C132.537 211.976 149.617 203.885 150.529 197.715C149.652 203.651 163.627 216.571 161.63 230.084Z" class="svg-color-6-fill"/><path fill-rule="evenodd" clip-rule="evenodd" d="M138.745 193.739L60.7347 193.928C60.0723 193.973 59.4005 194 58.7287 194C42.8692 194 30 181.39 30 165.851C30 150.304 44.4779 137.873 60.3373 137.873C63.0342 119.011 79.1396 105 98.1217 105C117.482 105 133.787 119.559 136.029 138.861C151.785 138.861 167.209 150.34 167.209 165.779C167.209 181.192 154.472 193.704 138.745 193.739V193.739Z" class="svg-color-8-fill"/><path fill-rule="evenodd" clip-rule="evenodd" d="M143.329 193.756L70.2325 193.933C69.6119 193.975 68.9823 194 68.3528 194C53.4923 194 41.4336 182.184 41.4336 167.624C41.4336 153.056 54.9996 141.408 69.8602 141.408C72.3872 123.734 87.4782 110.605 105.265 110.605C123.406 110.605 138.683 124.248 140.785 142.334C155.548 142.334 170 153.09 170 167.557C170 181.999 158.066 193.722 143.329 193.756V193.756Z" class="svg-color-9-fill"/><path fill-rule="evenodd" clip-rule="evenodd" d="M75.793 138L42.4915 197.542H65.6238L30 275L98 191.028L70.2503 183.585L75.793 138Z" fill="url(#paint0_linear_705_8220)"/><defs><linearGradient id="paint0_linear_705_8220" x1="64" y1="138" x2="64" y2="275" gradientUnits="userSpaceOnUse"><stop class="svg-color-10-stop"/><stop offset="1" class="svg-color-11-stop"/></linearGradient></defs></svg>
