<svg width="40" viewBox="0 0 240 300" fill="none" xmlns="http://www.w3.org/2000/svg"><path fill-rule="evenodd" clip-rule="evenodd" d="M138.161 122.808C109.283 96.0537 107.56 50.955 134.314 22.0766C134.651 21.7135 134.99 21.3546 135.332 21C120.917 22.3964 106.939 28.8804 96.3216 40.3405C73.3284 65.1596 74.8087 103.919 99.6278 126.912C117.827 143.773 143.522 147.474 165 138.463C155.304 135.388 146.117 130.178 138.161 122.808Z" class="svg-color-3-fill"/><path fill-rule="evenodd" clip-rule="evenodd" d="M201.978 190.76L129.539 190.934C128.924 190.975 128.3 191 127.677 191C112.95 191 101 179.382 101 165.065C101 150.741 114.444 139.288 129.17 139.288C131.675 121.909 146.63 109 164.256 109C182.234 109 197.373 122.414 199.456 140.198C214.086 140.198 228.408 150.774 228.408 164.999C228.408 179.199 216.581 190.727 201.978 190.76V190.76Z" class="svg-color-8-fill"/><path fill-rule="evenodd" clip-rule="evenodd" d="M206.234 190.775L138.358 190.938C137.782 190.977 137.197 191 136.613 191C122.814 191 111.616 180.113 111.616 166.699C111.616 153.276 124.213 142.544 138.012 142.544C140.359 126.261 154.372 114.165 170.888 114.165C187.733 114.165 201.92 126.734 203.871 143.397C217.579 143.397 231 153.307 231 166.637C231 179.943 219.918 190.744 206.234 190.775V190.775Z" class="svg-color-9-fill"/></svg>
