<svg width="40" viewBox="0 0 240 300" fill="none" xmlns="http://www.w3.org/2000/svg"><path fill-rule="evenodd" clip-rule="evenodd" d="M195.161 129.808C166.283 103.054 164.56 57.955 191.314 29.0766C191.651 28.7135 191.99 28.3546 192.332 28C177.917 29.3964 163.939 35.8804 153.322 47.3405C130.328 72.1596 131.809 110.919 156.628 133.912C174.827 150.773 200.522 154.474 222 145.463C212.304 142.388 203.117 137.178 195.161 129.808Z" class="svg-color-3-fill"/><path fill-rule="evenodd" clip-rule="evenodd" d="M158.836 187.645L47.0441 187.915C46.0948 187.979 45.1321 188.017 44.1693 188.017C21.4421 188.017 3 170.02 3 147.844C3 125.656 23.7474 107.915 46.4746 107.915C50.3393 80.9965 73.419 61 100.621 61C128.366 61 151.73 81.7785 154.944 109.325C177.522 109.325 199.625 125.707 199.625 147.742C199.625 169.738 181.373 187.594 158.836 187.645V187.645Z" class="svg-color-8-fill"/><path fill-rule="evenodd" clip-rule="evenodd" d="M165.406 187.669L60.6548 187.921C59.7653 187.981 58.8632 188.017 57.9611 188.017C36.6653 188.017 19.3848 171.154 19.3848 150.375C19.3848 129.584 38.8254 112.96 60.1211 112.96C63.7424 87.737 85.3685 69 110.857 69C136.854 69 158.747 88.4698 161.759 114.281C182.915 114.281 203.626 129.631 203.626 150.278C203.626 170.889 186.523 187.621 165.406 187.669V187.669Z" class="svg-color-9-fill"/></svg>
