<svg width="20" viewBox="0 0 2319 4041" fill="none" xmlns="http://www.w3.org/2000/svg"><path fill-rule="evenodd" clip-rule="evenodd" d="M204.161 3879.81C175.283 3853.05 173.56 3807.95 200.314 3779.08C200.651 3778.71 200.99 3778.35 201.332 3778C186.917 3779.4 172.939 3785.88 162.322 3797.34C139.328 3822.16 140.809 3860.92 165.628 3883.91C183.827 3900.77 209.522 3904.47 231 3895.46C221.304 3892.39 212.117 3887.18 204.161 3879.81Z" fill="#FFC800"/><path d="M94.6298 3974.08C93.3483 3982.75 85.3497 3988.75 76.7644 3987.49C68.1792 3986.22 62.2583 3978.16 63.5398 3969.49C65.537 3955.98 82.6174 3947.88 83.5294 3941.71C82.652 3947.65 96.627 3960.57 94.6298 3974.08Z" fill="#0BC2FF"/><path d="M141.63 3974.08C140.348 3982.75 132.35 3988.75 123.764 3987.49C115.179 3986.22 109.258 3978.16 110.54 3969.49C112.537 3955.98 129.617 3947.88 130.529 3941.71C129.652 3947.65 143.627 3960.57 141.63 3974.08Z" fill="#0BC2FF"/><path fill-rule="evenodd" clip-rule="evenodd" d="M158.836 3928.65L47.0441 3928.91C46.0948 3928.98 45.1321 3929.02 44.1693 3929.02C21.4421 3929.02 3 3911.02 3 3888.84C3 3866.66 23.7474 3848.92 46.4746 3848.92C50.3393 3822 73.419 3802 100.621 3802C128.366 3802 151.73 3822.78 154.944 3850.33C177.522 3850.33 199.625 3866.71 199.625 3888.74C199.625 3910.74 181.373 3928.59 158.836 3928.65V3928.65Z" fill="#C2D3E7"/><path fill-rule="evenodd" clip-rule="evenodd" d="M165.406 3928.67L60.6548 3928.92C59.7653 3928.98 58.8632 3929.02 57.9611 3929.02C36.6653 3929.02 19.3848 3912.15 19.3848 3891.37C19.3848 3870.58 38.8254 3853.96 60.1211 3853.96C63.7424 3828.74 85.3685 3810 110.857 3810C136.854 3810 158.747 3829.47 161.759 3855.28C182.915 3855.28 203.626 3870.63 203.626 3891.28C203.626 3911.89 186.523 3928.62 165.406 3928.67V3928.67Z" fill="#D6E2F0"/></svg>