<svg width="20" viewBox="0 0 240 300" fill="none" xmlns="http://www.w3.org/2000/svg"><path fill-rule="evenodd" clip-rule="evenodd" d="M207.161 141.808C178.283 115.054 176.56 69.955 203.314 41.0766C203.651 40.7135 203.99 40.3546 204.332 40C189.917 41.3964 175.939 47.8804 165.322 59.3405C142.328 84.1596 143.809 122.919 168.628 145.912C186.827 162.773 212.522 166.474 234 157.463C224.304 154.388 215.117 149.178 207.161 141.808Z" fill="#FFC800"/><path d="M116 223.104H160" stroke="#9EBBDD" stroke-width="8"/><path d="M149 242.604L127 204" stroke="#9EBBDD" stroke-width="8"/><path d="M149 204.396L127 243" stroke="#9EBBDD" stroke-width="8"/><path d="M61 215.104H105" stroke="#9EBBDD" stroke-width="8"/><path d="M94 234.604L72 196" stroke="#9EBBDD" stroke-width="8"/><path d="M94 196.396L72 235" stroke="#9EBBDD" stroke-width="8"/><path fill-rule="evenodd" clip-rule="evenodd" d="M158.836 187.645L47.0441 187.915C46.0948 187.979 45.1321 188.017 44.1693 188.017C21.4421 188.017 3 170.02 3 147.844C3 125.656 23.7474 107.915 46.4746 107.915C50.3393 80.9965 73.419 61 100.621 61C128.366 61 151.73 81.7785 154.944 109.325C177.522 109.325 199.625 125.707 199.625 147.742C199.625 169.738 181.373 187.594 158.836 187.645V187.645Z" fill="#C2D3E7"/><path fill-rule="evenodd" clip-rule="evenodd" d="M165.406 187.669L60.6548 187.921C59.7653 187.981 58.8632 188.017 57.9611 188.017C36.6653 188.017 19.3848 171.154 19.3848 150.375C19.3848 129.584 38.8254 112.96 60.1211 112.96C63.7424 87.737 85.3685 69 110.857 69C136.854 69 158.747 88.4698 161.759 114.281C182.915 114.281 203.626 129.631 203.626 150.278C203.626 170.889 186.523 187.621 165.406 187.669V187.669Z" fill="#D6E2F0"/></svg>