<svg width="20" viewBox="0 0 240 300" fill="none" xmlns="http://www.w3.org/2000/svg"><path fill-rule="evenodd" clip-rule="evenodd" d="M203.161 135.808C174.283 109.054 172.56 63.955 199.314 35.0766C199.651 34.7135 199.99 34.3546 200.332 34C185.917 35.3964 171.939 41.8804 161.322 53.3405C138.328 78.1596 139.809 116.919 164.628 139.912C182.827 156.773 208.522 160.474 230 151.463C220.304 148.388 211.117 143.178 203.161 135.808Z" fill="#FFC800"/><path d="M150.63 229.083C149.348 237.754 141.35 243.754 132.764 242.485C124.179 241.217 118.258 233.159 119.54 224.488C121.537 210.975 138.617 202.885 139.529 196.714C138.652 202.65 152.627 215.571 150.63 229.083Z" fill="#0BC2FF"/><path fill-rule="evenodd" clip-rule="evenodd" d="M158.836 187.645L47.0441 187.915C46.0948 187.979 45.1321 188.017 44.1693 188.017C21.4421 188.017 3 170.02 3 147.844C3 125.656 23.7474 107.915 46.4746 107.915C50.3393 80.9965 73.419 61 100.621 61C128.366 61 151.73 81.7785 154.944 109.325C177.522 109.325 199.625 125.707 199.625 147.742C199.625 169.738 181.373 187.594 158.836 187.645V187.645Z" fill="#C2D3E7"/><path fill-rule="evenodd" clip-rule="evenodd" d="M165.406 187.669L60.6548 187.921C59.7653 187.981 58.8632 188.017 57.9611 188.017C36.6653 188.017 19.3848 171.154 19.3848 150.375C19.3848 129.584 38.8254 112.96 60.1211 112.96C63.7424 87.737 85.3685 69 110.857 69C136.854 69 158.747 88.4698 161.759 114.281C182.915 114.281 203.626 129.631 203.626 150.278C203.626 170.889 186.523 187.621 165.406 187.669V187.669Z" fill="#D6E2F0"/><path d="M61 221.104H105" stroke="#9EBBDD" stroke-width="8"/><path d="M94 240.604L72 202" stroke="#9EBBDD" stroke-width="8"/><path d="M94 202.396L72 241" stroke="#9EBBDD" stroke-width="8"/></svg>