<svg width="40" viewBox="0 0 240 300" fill="none" xmlns="http://www.w3.org/2000/svg">
	<g clip-path="url(#clip0_719_9564)">
		<path fill-rule="evenodd" clip-rule="evenodd"
			d="M204.161 129.808C175.283 103.054 173.56 57.955 200.314 29.0766C200.651 28.7135 200.99 28.3546 201.332 28C186.917 29.3964 172.939 35.8804 162.322 47.3405C139.328 72.1596 140.809 110.919 165.628 133.912C183.827 150.773 209.522 154.474 231 145.463C221.304 142.388 212.117 137.178 204.161 129.808Z"
			class="svg-color-3-fill" />
		<path fill-rule="evenodd" clip-rule="evenodd"
			d="M157.836 186.645L46.0441 186.915C45.0948 186.979 44.1321 187.017 43.1693 187.017C20.4421 187.017 2 169.02 2 146.844C2 124.656 22.7474 106.915 45.4746 106.915C49.3393 79.9965 72.419 60 99.6211 60C127.366 60 150.73 80.7785 153.944 108.325C176.522 108.325 198.625 124.707 198.625 146.742C198.625 168.738 180.373 186.594 157.836 186.645V186.645Z"
			class="svg-color-8-fill" />
		<path fill-rule="evenodd" clip-rule="evenodd"
			d="M164.406 186.669L59.6548 186.921C58.7653 186.981 57.8632 187.017 56.9611 187.017C35.6653 187.017 18.3848 170.154 18.3848 149.375C18.3848 128.584 37.8254 111.96 59.1211 111.96C62.7424 86.737 84.3685 68 109.857 68C135.854 68 157.747 87.4698 160.759 113.281C181.915 113.281 202.626 128.631 202.626 149.278C202.626 169.889 185.523 186.621 164.406 186.669V186.669Z"
			class="svg-color-9-fill" />
		<path
			d="M80.6298 233.083C79.3483 241.754 71.3497 247.754 62.7644 246.485C54.1792 245.216 48.2583 237.159 49.5398 228.488C51.537 214.975 68.6174 206.884 69.5294 200.714C68.652 206.65 82.627 219.57 80.6298 233.083Z"
			class="svg-color-6-fill" />
		<path
			d="M127.63 227.083C126.348 235.754 118.35 241.754 109.764 240.485C101.179 239.216 95.2583 231.159 96.5398 222.488C98.537 208.975 115.617 200.884 116.529 194.714C115.652 200.65 129.627 213.57 127.63 227.083Z"
			class="svg-color-6-fill" />
	</g>
	<defs>
		<clipPath id="clip0_719_9564">
			<rect width="240" height="300" class="svg-color-12-fill" />
		</clipPath>
	</defs>
</svg>
