<svg width="40" viewBox="0 0 240 300" fill="none" xmlns="http://www.w3.org/2000/svg"><path fill-rule="evenodd" clip-rule="evenodd" d="M205.161 138.808C176.283 112.054 174.56 66.955 201.314 38.0766C201.651 37.7135 201.99 37.3546 202.332 37C187.917 38.3964 173.939 44.8804 163.322 56.3405C140.328 81.1596 141.809 119.919 166.628 142.912C184.827 159.773 210.522 163.474 232 154.463C222.304 151.388 213.117 146.178 205.161 138.808Z" class="svg-color-3-fill"/><path d="M114.63 230.083C113.348 238.754 105.35 244.754 96.7644 243.485C88.1792 242.216 82.2583 234.159 83.5398 225.488C85.537 211.975 102.617 203.884 103.529 197.714C102.652 203.65 116.627 216.57 114.63 230.083Z" class="svg-color-6-fill"/><path d="M133.63 275.083C132.348 283.754 124.35 289.754 115.764 288.485C107.179 287.216 101.258 279.159 102.54 270.488C104.537 256.975 121.617 248.884 122.529 242.714C121.652 248.65 135.627 261.57 133.63 275.083Z" class="svg-color-6-fill"/><path d="M67.6298 230.083C66.3483 238.754 58.3497 244.754 49.7644 243.485C41.1792 242.216 35.2583 234.159 36.5398 225.488C38.537 211.975 55.6174 203.884 56.5294 197.714C55.652 203.65 69.627 216.57 67.6298 230.083Z" class="svg-color-6-fill"/><path d="M86.6298 275.083C85.3483 283.754 77.3497 289.754 68.7644 288.485C60.1792 287.216 54.2583 279.159 55.5398 270.488C57.537 256.975 74.6174 248.884 75.5294 242.714C74.652 248.65 88.627 261.57 86.6298 275.083Z" class="svg-color-6-fill"/><path d="M161.63 230.083C160.348 238.754 152.35 244.754 143.764 243.485C135.179 242.216 129.258 234.159 130.54 225.488C132.537 211.975 149.617 203.884 150.529 197.714C149.652 203.65 163.627 216.57 161.63 230.083Z" class="svg-color-6-fill"/><path fill-rule="evenodd" clip-rule="evenodd" d="M158.836 187.645L47.0441 187.915C46.0948 187.979 45.1321 188.017 44.1693 188.017C21.4421 188.017 3 170.02 3 147.844C3 125.656 23.7474 107.915 46.4746 107.915C50.3393 80.9965 73.419 61 100.621 61C128.366 61 151.73 81.7785 154.944 109.325C177.522 109.325 199.625 125.707 199.625 147.742C199.625 169.738 181.373 187.594 158.836 187.645V187.645Z" class="svg-color-8-fill"/><path fill-rule="evenodd" clip-rule="evenodd" d="M165.406 187.669L60.6548 187.921C59.7653 187.981 58.8632 188.017 57.9611 188.017C36.6653 188.017 19.3848 171.154 19.3848 150.375C19.3848 129.584 38.8254 112.96 60.1211 112.96C63.7424 87.737 85.3685 69 110.857 69C136.854 69 158.747 88.4698 161.759 114.281C182.915 114.281 203.626 129.631 203.626 150.278C203.626 170.889 186.523 187.621 165.406 187.669V187.669Z" class="svg-color-9-fill"/><path fill-rule="evenodd" clip-rule="evenodd" d="M114.48 90L77.77 155.27H103.27L64 240.18L138.96 148.13L108.37 139.97L114.48 90Z" fill="url(#paint0_linear_705_8175)"/><defs><linearGradient id="paint0_linear_705_8175" x1="101.48" y1="90" x2="101.48" y2="240.18" gradientUnits="userSpaceOnUse"><stop class="svg-color-10-stop"/><stop offset="1" class="svg-color-11-stop"/></linearGradient></defs></svg>
