<svg width="20" viewBox="0 0 240 300" fill="none" xmlns="http://www.w3.org/2000/svg"><path fill-rule="evenodd" clip-rule="evenodd" d="M169.161 145.808C140.283 119.054 138.56 73.955 165.314 45.0766C165.651 44.7135 165.99 44.3546 166.332 44C151.917 45.3964 137.939 51.8804 127.322 63.3405C104.328 88.1596 105.809 126.919 130.628 149.912C148.827 166.773 174.522 170.474 196 161.463C186.304 158.388 177.117 153.178 169.161 145.808Z" fill="#FFC800"/><g opacity="0.7"><path fill-rule="evenodd" clip-rule="evenodd" d="M177.836 186.645L66.0441 186.915C65.0948 186.979 64.1321 187.017 63.1693 187.017C40.4421 187.017 22 169.02 22 146.844C22 124.656 42.7474 106.915 65.4746 106.915C69.3393 79.9965 92.419 60 119.621 60C147.366 60 170.73 80.7785 173.944 108.325C196.522 108.325 218.625 124.707 218.625 146.742C218.625 168.738 200.373 186.594 177.836 186.645V186.645Z" fill="#C2D3E7"/><path fill-rule="evenodd" clip-rule="evenodd" d="M184.406 186.669L79.6548 186.921C78.7653 186.981 77.8632 187.017 76.9611 187.017C55.6653 187.017 38.3848 170.154 38.3848 149.375C38.3848 128.584 57.8254 111.96 79.1211 111.96C82.7424 86.737 104.369 68 129.857 68C155.854 68 177.747 87.4698 180.759 113.281C201.915 113.281 222.626 128.631 222.626 149.278C222.626 169.889 205.523 186.621 184.406 186.669V186.669Z" fill="#D6E2F0"/></g></svg>