<svg width="240" height="300" viewBox="0 0 240 300" fill="none" xmlns="http://www.w3.org/2000/svg">
<path fill-rule="evenodd" clip-rule="evenodd" d="M169.161 129.808C140.283 103.054 138.56 57.955 165.314 29.0766C165.651 28.7135 165.99 28.3546 166.332 28C151.917 29.3964 137.939 35.8804 127.322 47.3405C104.328 72.1596 105.809 110.919 130.628 133.912C148.827 150.773 174.522 154.474 196 145.463C186.304 142.388 177.117 137.178 169.161 129.808Z" fill="#FFC800"/>
<path d="M114.63 230.084C113.348 238.754 105.35 244.755 96.7644 243.486C88.1792 242.217 82.2583 234.159 83.5398 225.489C85.537 211.976 102.617 203.885 103.529 197.715C102.652 203.651 116.627 216.571 114.63 230.084Z" fill="#0BC2FF"/>
<path d="M87.6298 276.084C86.3483 284.754 78.3497 290.755 69.7644 289.486C61.1792 288.217 55.2583 280.159 56.5398 271.489C58.537 257.976 75.6174 249.885 76.5294 243.715C75.652 249.651 89.627 262.571 87.6298 276.084Z" fill="#0BC2FF"/>
<path d="M161.63 230.084C160.348 238.754 152.35 244.755 143.764 243.486C135.179 242.217 129.258 234.159 130.54 225.489C132.537 211.976 149.617 203.885 150.529 197.715C149.652 203.651 163.627 216.571 161.63 230.084Z" fill="#0BC2FF"/>
<path d="M134.63 276.084C133.348 284.754 125.35 290.755 116.764 289.486C108.179 288.217 102.258 280.159 103.54 271.489C105.537 257.976 122.617 249.885 123.529 243.715C122.652 249.651 136.627 262.571 134.63 276.084Z" fill="#0BC2FF"/>
<path fill-rule="evenodd" clip-rule="evenodd" d="M138.745 193.739L60.7347 193.928C60.0723 193.973 59.4005 194 58.7287 194C42.8692 194 30 181.39 30 165.851C30 150.304 44.4779 137.873 60.3373 137.873C63.0342 119.011 79.1396 105 98.1217 105C117.482 105 133.787 119.559 136.029 138.861C151.785 138.861 167.209 150.34 167.209 165.779C167.209 181.192 154.472 193.704 138.745 193.739V193.739Z" fill="#C2D3E7"/>
<path fill-rule="evenodd" clip-rule="evenodd" d="M143.329 193.756L70.2325 193.933C69.6119 193.975 68.9823 194 68.3528 194C53.4923 194 41.4336 182.184 41.4336 167.624C41.4336 153.056 54.9996 141.408 69.8602 141.408C72.3872 123.734 87.4782 110.605 105.265 110.605C123.406 110.605 138.683 124.248 140.785 142.334C155.548 142.334 170 153.09 170 167.557C170 181.999 158.066 193.722 143.329 193.756V193.756Z" fill="#D6E2F0"/>
<path fill-rule="evenodd" clip-rule="evenodd" d="M75.793 138L42.4915 197.542H65.6238L30 275L98 191.028L70.2503 183.585L75.793 138Z" fill="url(#paint0_linear_705_8229)"/>
<defs>
<linearGradient id="paint0_linear_705_8229" x1="64" y1="138" x2="64" y2="275" gradientUnits="userSpaceOnUse">
<stop stop-color="#FFCACA"/>
<stop offset="1" stop-color="#FD1049"/>
</linearGradient>
</defs>
</svg>
