<svg width="240" height="300" viewBox="0 0 240 300" fill="none" xmlns="http://www.w3.org/2000/svg">
<path fill-rule="evenodd" clip-rule="evenodd" d="M158.836 187.645L47.0441 187.915C46.0948 187.979 45.1321 188.017 44.1693 188.017C21.4421 188.017 3 170.02 3 147.844C3 125.656 23.7474 107.915 46.4746 107.915C50.3393 80.9965 73.419 61 100.621 61C128.366 61 151.73 81.7785 154.944 109.325C177.522 109.325 199.625 125.707 199.625 147.742C199.625 169.738 181.373 187.594 158.836 187.645V187.645Z" fill="#C2D3E7"/>
<path fill-rule="evenodd" clip-rule="evenodd" d="M165.406 187.669L60.6548 187.921C59.7653 187.981 58.8632 188.017 57.9611 188.017C36.6653 188.017 19.3848 171.154 19.3848 150.375C19.3848 129.584 38.8254 112.96 60.1211 112.96C63.7424 87.737 85.3685 69 110.857 69C136.854 69 158.747 88.4698 161.759 114.281C182.915 114.281 203.626 129.631 203.626 150.278C203.626 170.889 186.523 187.621 165.406 187.669V187.669Z" fill="#D6E2F0"/>
<path fill-rule="evenodd" clip-rule="evenodd" d="M194.745 231.739L116.735 231.928C116.072 231.973 115.401 232 114.729 232C98.8692 232 86 219.39 86 203.851C86 188.304 100.478 175.873 116.337 175.873C119.034 157.011 135.14 143 154.122 143C173.482 143 189.787 157.559 192.029 176.861C207.785 176.861 223.209 188.34 223.209 203.779C223.209 219.192 210.472 231.704 194.745 231.739V231.739Z" fill="#C2D3E7"/>
<path fill-rule="evenodd" clip-rule="evenodd" d="M199.329 231.756L126.233 231.933C125.612 231.975 124.982 232 124.353 232C109.492 232 97.4336 220.184 97.4336 205.624C97.4336 191.056 111 179.408 125.86 179.408C128.387 161.734 143.478 148.605 161.265 148.605C179.406 148.605 194.683 162.248 196.785 180.334C211.548 180.334 226 191.09 226 205.557C226 219.999 214.066 231.722 199.329 231.756V231.756Z" fill="#D6E2F0"/>
</svg>
