<svg width="240" height="300" viewBox="0 0 240 300" fill="none" xmlns="http://www.w3.org/2000/svg">
<path fill-rule="evenodd" clip-rule="evenodd" d="M204.161 136.808C175.283 110.054 173.56 64.955 200.314 36.0766C200.651 35.7135 200.99 35.3546 201.332 35C186.917 36.3964 172.939 42.8804 162.322 54.3405C139.328 79.1596 140.809 117.919 165.628 140.912C183.827 157.773 209.522 161.474 231 152.463C221.304 149.388 212.117 144.178 204.161 136.808Z" fill="#FFC800"/>
<path fill-rule="evenodd" clip-rule="evenodd" d="M158.836 187.645L47.0441 187.915C46.0948 187.979 45.1321 188.017 44.1693 188.017C21.4421 188.017 3 170.02 3 147.844C3 125.656 23.7474 107.915 46.4746 107.915C50.3393 80.9965 73.419 61 100.621 61C128.366 61 151.73 81.7785 154.944 109.325C177.522 109.325 199.625 125.707 199.625 147.742C199.625 169.738 181.373 187.594 158.836 187.645V187.645Z" fill="#C2D3E7"/>
<path fill-rule="evenodd" clip-rule="evenodd" d="M165.406 187.669L60.6548 187.921C59.7653 187.981 58.8632 188.017 57.9611 188.017C36.6653 188.017 19.3848 171.154 19.3848 150.375C19.3848 129.584 38.8254 112.96 60.1211 112.96C63.7424 87.737 85.3685 69 110.857 69C136.854 69 158.747 88.4698 161.759 114.281C182.915 114.281 203.626 129.631 203.626 150.278C203.626 170.889 186.523 187.621 165.406 187.669V187.669Z" fill="#D6E2F0"/>
<path d="M80 216.104H124" stroke="#9EBBDD" stroke-width="8"/>
<path d="M113 235.604L91 197" stroke="#9EBBDD" stroke-width="8"/>
<path d="M113 197.396L91 236" stroke="#9EBBDD" stroke-width="8"/>
<path d="M109 264.104H153" stroke="#9EBBDD" stroke-width="8"/>
<path d="M142 283.604L120 245" stroke="#9EBBDD" stroke-width="8"/>
<path d="M142 245.396L120 284" stroke="#9EBBDD" stroke-width="8"/>
<path d="M64.6298 225.083C63.3483 233.754 55.3497 239.754 46.7644 238.485C38.1792 237.217 32.2583 229.159 33.5398 220.488C35.537 206.975 52.6174 198.885 53.5294 192.714C52.652 198.65 66.627 211.571 64.6298 225.083Z" fill="#0BC2FF"/>
<path d="M168.63 225.083C167.348 233.754 159.35 239.754 150.764 238.485C142.179 237.217 136.258 229.159 137.54 220.488C139.537 206.975 156.617 198.885 157.529 192.714C156.652 198.65 170.627 211.571 168.63 225.083Z" fill="#0BC2FF"/>
<path d="M82.6298 274.083C81.3483 282.754 73.3497 288.754 64.7644 287.485C56.1792 286.217 50.2583 278.159 51.5398 269.488C53.537 255.975 70.6174 247.885 71.5294 241.714C70.652 247.65 84.627 260.571 82.6298 274.083Z" fill="#0BC2FF"/>
</svg>
