<svg width="240" height="300" viewBox="0 0 240 300" fill="none" xmlns="http://www.w3.org/2000/svg">
<path fill-rule="evenodd" clip-rule="evenodd" d="M204.161 140.808C175.283 114.054 173.56 68.955 200.314 40.0766C200.651 39.7135 200.99 39.3546 201.332 39C186.917 40.3964 172.939 46.8804 162.322 58.3405C139.328 83.1596 140.809 121.919 165.628 144.912C183.827 161.773 209.522 165.474 231 156.463C221.304 153.388 212.117 148.178 204.161 140.808Z" fill="#FFC800"/>
<path fill-rule="evenodd" clip-rule="evenodd" d="M157.836 186.645L46.0441 186.915C45.0948 186.979 44.1321 187.017 43.1693 187.017C20.4421 187.017 2 169.02 2 146.844C2 124.656 22.7474 106.915 45.4746 106.915C49.3393 79.9965 72.419 60 99.6211 60C127.366 60 150.73 80.7785 153.944 108.325C176.522 108.325 198.625 124.707 198.625 146.742C198.625 168.738 180.373 186.594 157.836 186.645V186.645Z" fill="#C2D3E7"/>
<path fill-rule="evenodd" clip-rule="evenodd" d="M164.406 186.669L59.6548 186.921C58.7653 186.981 57.8632 187.017 56.9611 187.017C35.6653 187.017 18.3848 170.154 18.3848 149.375C18.3848 128.584 37.8254 111.96 59.1211 111.96C62.7424 86.737 84.3685 68 109.857 68C135.854 68 157.747 87.4698 160.759 113.281C181.915 113.281 202.626 128.631 202.626 149.278C202.626 169.889 185.523 186.621 164.406 186.669V186.669Z" fill="#D6E2F0"/>
<path d="M165.63 224.083C164.348 232.754 156.35 238.754 147.764 237.485C139.179 236.216 133.258 228.159 134.54 219.488C136.537 205.975 153.617 197.884 154.529 191.714C153.652 197.65 167.627 210.57 165.63 224.083Z" fill="#0BC2FF"/>
<path d="M76.6298 224.083C75.3483 232.754 67.3497 238.754 58.7644 237.485C50.1792 236.216 44.2583 228.159 45.5398 219.488C47.537 205.975 64.6174 197.884 65.5294 191.714C64.652 197.65 78.627 210.57 76.6298 224.083Z" fill="#0BC2FF"/>
<path d="M141.63 277.083C140.348 285.754 132.35 291.754 123.764 290.485C115.179 289.216 109.258 281.159 110.54 272.488C112.537 258.975 129.617 250.884 130.529 244.714C129.652 250.65 143.627 263.57 141.63 277.083Z" fill="#0BC2FF"/>
<circle cx="108" cy="215" r="13" fill="white" stroke="#0BC2FF" stroke-width="4"/>
<circle cx="83" cy="272" r="13" fill="white" stroke="#0BC2FF" stroke-width="4"/>
<path fill-rule="evenodd" clip-rule="evenodd" d="M115.14 100L80.8588 160.846H104.672L68 240L138 154.19L109.434 146.583L115.14 100Z" fill="url(#paint0_linear_705_8187)"/>
<defs>
<linearGradient id="paint0_linear_705_8187" x1="103" y1="100" x2="103" y2="240" gradientUnits="userSpaceOnUse">
<stop stop-color="#FFCACA"/>
<stop offset="1" stop-color="#FD1049"/>
</linearGradient>
</defs>
</svg>
