<svg width="240" height="300" viewBox="0 0 240 300" fill="none" xmlns="http://www.w3.org/2000/svg">
<g clip-path="url(#clip0_705_8413)">
<path fill-rule="evenodd" clip-rule="evenodd" d="M175.836 186.645L64.0441 186.915C63.0948 186.979 62.1321 187.017 61.1693 187.017C38.4421 187.017 20 169.02 20 146.844C20 124.656 40.7474 106.915 63.4746 106.915C67.3393 79.9965 90.419 60 117.621 60C145.366 60 168.73 80.7785 171.944 108.325C194.522 108.325 216.625 124.707 216.625 146.742C216.625 168.738 198.373 186.594 175.836 186.645V186.645Z" fill="#C2D3E7"/>
<path fill-rule="evenodd" clip-rule="evenodd" d="M182.406 186.669L77.6548 186.921C76.7653 186.981 75.8632 187.017 74.9611 187.017C53.6653 187.017 36.3848 170.154 36.3848 149.375C36.3848 128.584 55.8254 111.96 77.1211 111.96C80.7424 86.737 102.369 68 127.857 68C153.854 68 175.747 87.4698 178.759 113.281C199.915 113.281 220.626 128.631 220.626 149.278C220.626 169.889 203.523 186.621 182.406 186.669V186.669Z" fill="#D6E2F0"/>
<path d="M124.63 224.084C123.348 232.754 115.35 238.755 106.764 237.486C98.1792 236.217 92.2583 228.159 93.5398 219.489C95.537 205.976 112.617 197.885 113.529 191.715C112.652 197.651 126.627 210.571 124.63 224.084Z" fill="#0BC2FF"/>
<path d="M143.63 280.084C142.348 288.754 134.35 294.755 125.764 293.486C117.179 292.217 111.258 284.159 112.54 275.489C114.537 261.976 131.617 253.885 132.529 247.715C131.652 253.651 145.627 266.571 143.63 280.084Z" fill="#0BC2FF"/>
<path d="M77.6298 224.084C76.3483 232.754 68.3497 238.755 59.7644 237.486C51.1792 236.217 45.2583 228.159 46.5398 219.489C48.537 205.976 65.6174 197.885 66.5294 191.715C65.652 197.651 79.627 210.571 77.6298 224.084Z" fill="#0BC2FF"/>
<path d="M96.6298 280.084C95.3483 288.754 87.3497 294.755 78.7644 293.486C70.1792 292.217 64.2583 284.159 65.5398 275.489C67.537 261.976 84.6174 253.885 85.5294 247.715C84.652 253.651 98.627 266.571 96.6298 280.084Z" fill="#0BC2FF"/>
<path d="M171.63 224.084C170.348 232.754 162.35 238.755 153.764 237.486C145.179 236.217 139.258 228.159 140.54 219.489C142.537 205.976 159.617 197.885 160.529 191.715C159.652 197.651 173.627 210.571 171.63 224.084Z" fill="#0BC2FF"/>
<path fill-rule="evenodd" clip-rule="evenodd" d="M133.48 75L96.77 140.27H122.27L83 225.18L157.96 133.13L127.37 124.97L133.48 75Z" fill="url(#paint0_linear_705_8413)"/>
</g>
<defs>
<linearGradient id="paint0_linear_705_8413" x1="120.48" y1="75" x2="120.48" y2="225.18" gradientUnits="userSpaceOnUse">
<stop stop-color="#FFCACA"/>
<stop offset="1" stop-color="#FD1049"/>
</linearGradient>
<clipPath id="clip0_705_8413">
<rect width="240" height="300" fill="white"/>
</clipPath>
</defs>
</svg>
